<svg xmlns="http://www.w3.org/2000/svg" version="1.1" xmlns:xlink="http://www.w3.org/1999/xlink" xmlns:svgjs="http://svgjs.dev/svgjs" width="765" height="625" viewBox="0 0 421.74001464843747 300" class="svg-animations " style="background-color: rgb(12, 10, 29);"><svg viewBox="0 0 133.0120086669922 140.00595092773438" width="150" height="150" x="135.87000732421873" y="52.00500011444092" style="fill: rgb(255, 255, 255);"><svg width="133" height="135" viewBox="0 0 133 135" xmlns="http://www.w3.org/2000/svg">
	<g clip-path="url(#clip0)">
	<path d="M57.0528 0C25.5467 0 0 25.5427 0 57.0439C0 88.545 25.5467 114.088 57.0528 114.088C88.5589 114.088 114.106 88.545 114.106 57.0439C114.106 25.5427 88.5589 0 57.0528 0ZM63.0122 65.7737L56.4407 132.979C55.9441 135.404 52.6295 135.751 51.6362 133.487L30.2357 34.3995C29.3117 32.2864 31.4599 30.1386 33.5734 31.0624L87.3 54.5612C89.5636 55.5543 135.344 75.3464 132.919 75.843L64.9871 63.7991C63.9938 64.0069 63.22 64.7806 63.0122 65.7737Z"/>
	</g>
	</svg></svg><svg x="119.89000396728514" y="202.00500011444092" style="fill: rgb(255, 255, 255);"><path d="M20.96 26L17.57 26Q17.02 24.56 16.54 23.17Q16.06 21.78 15.55 20.34L15.55 20.34L5.50 20.34L3.49 26L0.26 26Q1.54 22.48 2.66 19.49Q3.78 16.50 4.85 13.81Q5.92 11.12 6.98 8.67Q8.03 6.22 9.18 3.82L9.18 3.82L12.03 3.82Q13.18 6.22 14.24 8.67Q15.30 11.12 16.37 13.81Q17.44 16.50 18.56 19.49Q19.68 22.48 20.96 26L20.96 26ZM6.40 17.78L14.66 17.78Q13.63 14.99 12.62 12.38Q11.62 9.78 10.53 7.38L10.53 7.38Q9.41 9.78 8.40 12.38Q7.39 14.99 6.40 17.78L6.40 17.78ZM30.59 26.38L30.59 26.38Q28.58 26.38 27.06 25.74Q25.54 25.10 24.50 23.95Q23.46 22.80 22.94 21.22Q22.43 19.63 22.43 17.71L22.43 17.71Q22.43 15.79 22.99 14.19Q23.55 12.59 24.58 11.42Q25.60 10.26 27.09 9.60Q28.58 8.94 30.40 8.94L30.40 8.94Q31.52 8.94 32.64 9.14Q33.76 9.33 34.78 9.74L34.78 9.74L34.11 12.27Q33.44 11.95 32.56 11.76Q31.68 11.57 30.69 11.57L30.69 11.57Q28.19 11.57 26.86 13.14Q25.54 14.70 25.54 17.71L25.54 17.71Q25.54 19.06 25.84 20.18Q26.14 21.30 26.80 22.10Q27.46 22.90 28.48 23.33Q29.50 23.76 30.98 23.76L30.98 23.76Q32.16 23.76 33.12 23.54Q34.08 23.31 34.62 23.06L34.62 23.06L35.04 25.55Q34.78 25.71 34.30 25.86Q33.82 26 33.22 26.11Q32.61 26.22 31.92 26.30Q31.23 26.38 30.59 26.38ZM45.47 26.38L45.47 26.38Q43.46 26.38 41.94 25.74Q40.42 25.10 39.38 23.95Q38.34 22.80 37.82 21.22Q37.31 19.63 37.31 17.71L37.31 17.71Q37.31 15.79 37.87 14.19Q38.43 12.59 39.46 11.42Q40.48 10.26 41.97 9.60Q43.46 8.94 45.28 8.94L45.28 8.94Q46.40 8.94 47.52 9.14Q48.64 9.33 49.66 9.74L49.66 9.74L48.99 12.27Q48.32 11.95 47.44 11.76Q46.56 11.57 45.57 11.57L45.57 11.57Q43.07 11.57 41.74 13.14Q40.42 14.70 40.42 17.71L40.42 17.71Q40.42 19.06 40.72 20.18Q41.02 21.30 41.68 22.10Q42.34 22.90 43.36 23.33Q44.38 23.76 45.86 23.76L45.86 23.76Q47.04 23.76 48 23.54Q48.96 23.31 49.50 23.06L49.50 23.06L49.92 25.55Q49.66 25.71 49.18 25.86Q48.70 26 48.10 26.11Q47.49 26.22 46.80 26.30Q46.11 26.38 45.47 26.38ZM52.19 17.71L52.19 17.71Q52.19 15.50 52.83 13.86Q53.47 12.21 54.53 11.12Q55.58 10.03 56.96 9.49Q58.34 8.94 59.78 8.94L59.78 8.94Q63.14 8.94 64.93 11.04Q66.72 13.14 66.72 17.42L66.72 17.42Q66.72 17.62 66.72 17.92Q66.72 18.22 66.69 18.48L66.69 18.48L55.30 18.48Q55.49 21.07 56.80 22.42Q58.11 23.76 60.90 23.76L60.90 23.76Q62.46 23.76 63.54 23.49Q64.61 23.22 65.15 22.96L65.15 22.96L65.57 25.46Q65.02 25.74 63.66 26.06Q62.30 26.38 60.58 26.38L60.58 26.38Q58.40 26.38 56.82 25.73Q55.23 25.07 54.21 23.92Q53.18 22.77 52.69 21.18Q52.19 19.60 52.19 17.71ZM55.36 16.08L63.62 16.08Q63.65 14.06 62.61 12.77Q61.57 11.47 59.74 11.47L59.74 11.47Q58.72 11.47 57.94 11.87Q57.15 12.27 56.61 12.91Q56.06 13.55 55.76 14.38Q55.46 15.22 55.36 16.08L55.36 16.08ZM74.88 23.86L74.88 23.86Q76.70 23.86 77.58 23.38Q78.46 22.90 78.46 21.84L78.46 21.84Q78.46 20.75 77.60 20.11Q76.74 19.47 74.75 18.67L74.75 18.67Q73.79 18.29 72.91 17.89Q72.03 17.49 71.39 16.94Q70.75 16.40 70.37 15.63Q69.98 14.86 69.98 13.74L69.98 13.74Q69.98 11.54 71.62 10.24Q73.25 8.94 76.06 8.94L76.06 8.94Q76.77 8.94 77.47 9.02Q78.18 9.10 78.78 9.22Q79.39 9.33 79.86 9.46Q80.32 9.58 80.58 9.68L80.58 9.68L80.03 12.24Q79.55 11.98 78.53 11.71Q77.50 11.44 76.06 11.44L76.06 11.44Q74.82 11.44 73.89 11.94Q72.96 12.43 72.96 13.49L72.96 13.49Q72.96 14.03 73.17 14.45Q73.38 14.86 73.81 15.20Q74.24 15.54 74.88 15.82Q75.52 16.11 76.42 16.43L76.42 16.43Q77.60 16.88 78.53 17.31Q79.46 17.74 80.11 18.32Q80.77 18.90 81.12 19.71Q81.47 20.53 81.47 21.71L81.47 21.71Q81.47 24.02 79.76 25.20Q78.05 26.38 74.88 26.38L74.88 26.38Q72.67 26.38 71.42 26.02Q70.18 25.65 69.73 25.46L69.73 25.46L70.27 22.90Q70.78 23.09 71.90 23.47Q73.02 23.86 74.88 23.86ZM89.15 23.86L89.15 23.86Q90.98 23.86 91.86 23.38Q92.74 22.90 92.74 21.84L92.74 21.84Q92.74 20.75 91.87 20.11Q91.01 19.47 89.02 18.67L89.02 18.67Q88.06 18.29 87.18 17.89Q86.30 17.49 85.66 16.94Q85.02 16.40 84.64 15.63Q84.26 14.86 84.26 13.74L84.26 13.74Q84.26 11.54 85.89 10.24Q87.52 8.94 90.34 8.94L90.34 8.94Q91.04 8.94 91.74 9.02Q92.45 9.10 93.06 9.22Q93.66 9.33 94.13 9.46Q94.59 9.58 94.85 9.68L94.85 9.68L94.30 12.24Q93.82 11.98 92.80 11.71Q91.78 11.44 90.34 11.44L90.34 11.44Q89.09 11.44 88.16 11.94Q87.23 12.43 87.23 13.49L87.23 13.49Q87.23 14.03 87.44 14.45Q87.65 14.86 88.08 15.20Q88.51 15.54 89.15 15.82Q89.79 16.11 90.69 16.43L90.69 16.43Q91.87 16.88 92.80 17.31Q93.73 17.74 94.38 18.32Q95.04 18.90 95.39 19.71Q95.74 20.53 95.74 21.71L95.74 21.71Q95.74 24.02 94.03 25.20Q92.32 26.38 89.15 26.38L89.15 26.38Q86.94 26.38 85.70 26.02Q84.45 25.65 84.00 25.46L84.00 25.46L84.54 22.90Q85.06 23.09 86.18 23.47Q87.30 23.86 89.15 23.86ZM114.34 3.82L117.66 3.82Q116.45 7.34 115.34 10.34Q114.24 13.33 113.18 16.02Q112.13 18.70 111.09 21.15Q110.05 23.60 108.96 26L108.96 26L106.05 26Q104.96 23.60 103.92 21.15Q102.88 18.70 101.81 16.02Q100.74 13.33 99.62 10.34Q98.50 7.34 97.31 3.82L97.31 3.82L100.74 3.82Q102.46 8.88 104.13 13.55Q105.79 18.22 107.55 22.32L107.55 22.32Q109.31 18.26 110.98 13.57Q112.64 8.88 114.34 3.82L114.34 3.82ZM118.18 17.71L118.18 17.71Q118.18 15.50 118.82 13.86Q119.46 12.21 120.51 11.12Q121.57 10.03 122.94 9.49Q124.32 8.94 125.76 8.94L125.76 8.94Q129.12 8.94 130.91 11.04Q132.70 13.14 132.70 17.42L132.70 17.42Q132.70 17.62 132.70 17.92Q132.70 18.22 132.67 18.48L132.67 18.48L121.28 18.48Q121.47 21.07 122.78 22.42Q124.10 23.76 126.88 23.76L126.88 23.76Q128.45 23.76 129.52 23.49Q130.59 23.22 131.14 22.96L131.14 22.96L131.55 25.46Q131.01 25.74 129.65 26.06Q128.29 26.38 126.56 26.38L126.56 26.38Q124.38 26.38 122.80 25.73Q121.22 25.07 120.19 23.92Q119.17 22.77 118.67 21.18Q118.18 19.60 118.18 17.71ZM121.34 16.08L129.60 16.08Q129.63 14.06 128.59 12.77Q127.55 11.47 125.73 11.47L125.73 11.47Q124.70 11.47 123.92 11.87Q123.14 12.27 122.59 12.91Q122.05 13.55 121.74 14.38Q121.44 15.22 121.34 16.08L121.34 16.08ZM143.14 9.01L143.14 9.01Q143.52 9.01 144.02 9.06Q144.51 9.10 144.99 9.18Q145.47 9.26 145.87 9.34Q146.27 9.42 146.46 9.49L146.46 9.49L145.95 12.08Q145.60 11.95 144.78 11.78Q143.97 11.60 142.69 11.60L142.69 11.60Q141.86 11.60 141.04 11.78Q140.22 11.95 139.97 12.02L139.97 12.02L139.97 26L136.99 26L136.99 10.06Q138.05 9.68 139.62 9.34Q141.18 9.01 143.14 9.01ZM153.22 23.86L153.22 23.86Q155.04 23.86 155.92 23.38Q156.80 22.90 156.80 21.84L156.80 21.84Q156.80 20.75 155.94 20.11Q155.07 19.47 153.09 18.67L153.09 18.67Q152.13 18.29 151.25 17.89Q150.37 17.49 149.73 16.94Q149.09 16.40 148.70 15.63Q148.32 14.86 148.32 13.74L148.32 13.74Q148.32 11.54 149.95 10.24Q151.58 8.94 154.40 8.94L154.40 8.94Q155.10 8.94 155.81 9.02Q156.51 9.10 157.12 9.22Q157.73 9.33 158.19 9.46Q158.66 9.58 158.91 9.68L158.91 9.68L158.37 12.24Q157.89 11.98 156.86 11.71Q155.84 11.44 154.40 11.44L154.40 11.44Q153.15 11.44 152.22 11.94Q151.30 12.43 151.30 13.49L151.30 13.49Q151.30 14.03 151.50 14.45Q151.71 14.86 152.14 15.20Q152.58 15.54 153.22 15.82Q153.86 16.11 154.75 16.43L154.75 16.43Q155.94 16.88 156.86 17.31Q157.79 17.74 158.45 18.32Q159.10 18.90 159.46 19.71Q159.81 20.53 159.81 21.71L159.81 21.71Q159.81 24.02 158.10 25.20Q156.38 26.38 153.22 26.38L153.22 26.38Q151.01 26.38 149.76 26.02Q148.51 25.65 148.06 25.46L148.06 25.46L148.61 22.90Q149.12 23.09 150.24 23.47Q151.36 23.86 153.22 23.86ZM162.69 17.71L162.69 17.71Q162.69 15.50 163.33 13.86Q163.97 12.21 165.02 11.12Q166.08 10.03 167.46 9.49Q168.83 8.94 170.27 8.94L170.27 8.94Q173.63 8.94 175.42 11.04Q177.22 13.14 177.22 17.42L177.22 17.42Q177.22 17.62 177.22 17.92Q177.22 18.22 177.18 18.48L177.18 18.48L165.79 18.48Q165.98 21.07 167.30 22.42Q168.61 23.76 171.39 23.76L171.39 23.76Q172.96 23.76 174.03 23.49Q175.10 23.22 175.65 22.96L175.65 22.96L176.06 25.46Q175.52 25.74 174.16 26.06Q172.80 26.38 171.07 26.38L171.07 26.38Q168.90 26.38 167.31 25.73Q165.73 25.07 164.70 23.92Q163.68 22.77 163.18 21.18Q162.69 19.60 162.69 17.71ZM165.86 16.08L174.11 16.08Q174.14 14.06 173.10 12.77Q172.06 11.47 170.24 11.47L170.24 11.47Q169.22 11.47 168.43 11.87Q167.65 12.27 167.10 12.91Q166.56 13.55 166.26 14.38Q165.95 15.22 165.86 16.08L165.86 16.08Z"/></svg><svg x="35.14500122070311" y="232.5649995803833" style="fill: rgb(255, 255, 255);"><path d="M5.50 13.24L5.50 13.24Q4.42 13.24 3.62 12.90Q2.82 12.57 2.30 11.98Q1.79 11.40 1.54 10.60Q1.30 9.80 1.30 8.87L1.30 8.87L1.30 1.91L2.85 1.91L2.85 8.70Q2.85 10.36 3.58 11.11Q4.32 11.86 5.50 11.86L5.50 11.86Q6.10 11.86 6.58 11.68Q7.07 11.50 7.42 11.11Q7.78 10.73 7.97 10.13Q8.16 9.53 8.16 8.70L8.16 8.70L8.16 1.91L9.71 1.91L9.71 8.87Q9.71 9.80 9.46 10.60Q9.22 11.40 8.70 11.98Q8.18 12.57 7.38 12.90Q6.59 13.24 5.50 13.24ZM12.29 13L12.29 4.92Q12.80 4.79 13.65 4.65Q14.50 4.50 15.60 4.50L15.60 4.50Q16.59 4.50 17.25 4.78Q17.90 5.06 18.30 5.57Q18.69 6.07 18.85 6.78Q19.01 7.48 19.01 8.33L19.01 8.33L19.01 13L17.52 13L17.52 8.65Q17.52 7.88 17.42 7.34Q17.31 6.79 17.07 6.46Q16.83 6.12 16.43 5.97Q16.03 5.82 15.44 5.82L15.44 5.82Q15.20 5.82 14.94 5.83Q14.69 5.85 14.46 5.87Q14.22 5.90 14.04 5.93Q13.86 5.96 13.78 5.98L13.78 5.98L13.78 13L12.29 13ZM24.18 11.91L23.97 13.16Q22.59 13.13 22.02 12.57Q21.44 12.01 21.44 10.82L21.44 10.82L21.44 0.84L22.93 0.58L22.93 10.58Q22.93 10.95 22.99 11.19Q23.06 11.43 23.20 11.58Q23.34 11.72 23.58 11.79Q23.82 11.86 24.18 11.91L24.18 11.91ZM33.18 8.84L33.18 8.84Q33.18 9.83 32.90 10.63Q32.61 11.43 32.09 12.01Q31.57 12.58 30.85 12.90Q30.13 13.21 29.28 13.21L29.28 13.21Q28.43 13.21 27.71 12.90Q26.99 12.58 26.47 12.01Q25.95 11.43 25.66 10.63Q25.38 9.83 25.38 8.84L25.38 8.84Q25.38 7.86 25.66 7.06Q25.95 6.25 26.47 5.67Q26.99 5.10 27.71 4.78Q28.43 4.47 29.28 4.47L29.28 4.47Q30.13 4.47 30.85 4.78Q31.57 5.10 32.09 5.67Q32.61 6.25 32.90 7.06Q33.18 7.86 33.18 8.84ZM31.63 8.84L31.63 8.84Q31.63 7.43 31.00 6.61Q30.37 5.78 29.28 5.78L29.28 5.78Q28.19 5.78 27.56 6.61Q26.93 7.43 26.93 8.84L26.93 8.84Q26.93 10.25 27.56 11.07Q28.19 11.90 29.28 11.90L29.28 11.90Q30.37 11.90 31.00 11.07Q31.63 10.25 31.63 8.84ZM38.90 13.19L38.90 13.19Q37.89 13.19 37.13 12.87Q36.37 12.55 35.85 11.98Q35.33 11.40 35.07 10.61Q34.82 9.82 34.82 8.86L34.82 8.86Q34.82 7.90 35.10 7.10Q35.38 6.30 35.89 5.71Q36.40 5.13 37.14 4.80Q37.89 4.47 38.80 4.47L38.80 4.47Q39.36 4.47 39.92 4.57Q40.48 4.66 40.99 4.87L40.99 4.87L40.66 6.14Q40.32 5.98 39.88 5.88Q39.44 5.78 38.94 5.78L38.94 5.78Q37.70 5.78 37.03 6.57Q36.37 7.35 36.37 8.86L36.37 8.86Q36.37 9.53 36.52 10.09Q36.67 10.65 37 11.05Q37.33 11.45 37.84 11.66Q38.35 11.88 39.09 11.88L39.09 11.88Q39.68 11.88 40.16 11.77Q40.64 11.66 40.91 11.53L40.91 11.53L41.12 12.78Q40.99 12.86 40.75 12.93Q40.51 13 40.21 13.06Q39.90 13.11 39.56 13.15Q39.22 13.19 38.90 13.19ZM45.73 8.42L45.73 8.42Q46.21 8.79 46.74 9.34Q47.28 9.88 47.80 10.51Q48.32 11.14 48.78 11.79Q49.25 12.44 49.57 13L49.57 13L47.82 13Q47.49 12.44 47.05 11.86Q46.61 11.27 46.13 10.74Q45.65 10.20 45.15 9.75Q44.66 9.30 44.21 9L44.21 9L44.21 13L42.72 13L42.72 0.84L44.21 0.58L44.21 8.17Q44.59 7.78 45.06 7.32Q45.52 6.86 45.97 6.38Q46.42 5.90 46.82 5.46Q47.22 5.02 47.50 4.68L47.50 4.68L49.25 4.68Q48.88 5.08 48.45 5.56Q48.02 6.04 47.55 6.53Q47.09 7.02 46.62 7.50Q46.14 7.99 45.73 8.42ZM56.16 2.10L56.16 4.68L59.31 4.68L59.31 5.93L56.16 5.93L56.16 9.77Q56.16 10.39 56.26 10.80Q56.35 11.21 56.54 11.44Q56.74 11.67 57.02 11.77Q57.31 11.86 57.70 11.86L57.70 11.86Q58.37 11.86 58.78 11.71Q59.18 11.56 59.34 11.50L59.34 11.50L59.63 12.73Q59.41 12.84 58.85 13.01Q58.29 13.18 57.57 13.18L57.57 13.18Q56.72 13.18 56.17 12.96Q55.62 12.74 55.28 12.31Q54.94 11.88 54.81 11.25Q54.67 10.62 54.67 9.78L54.67 9.78L54.67 2.36L56.16 2.10ZM62.69 13L61.20 13L61.20 0.84L62.69 0.58L62.69 4.84Q63.10 4.68 63.58 4.59Q64.05 4.50 64.51 4.50L64.51 4.50Q65.50 4.50 66.16 4.78Q66.82 5.06 67.21 5.57Q67.60 6.07 67.76 6.78Q67.92 7.48 67.92 8.33L67.92 8.33L67.92 13L66.43 13L66.43 8.65Q66.43 7.88 66.33 7.34Q66.22 6.79 65.98 6.46Q65.74 6.12 65.34 5.97Q64.94 5.82 64.35 5.82L64.35 5.82Q64.11 5.82 63.86 5.85Q63.60 5.88 63.37 5.92Q63.14 5.96 62.95 6.01Q62.77 6.06 62.69 6.09L62.69 6.09L62.69 13ZM69.87 8.86L69.87 8.86Q69.87 7.75 70.19 6.93Q70.51 6.10 71.04 5.56Q71.57 5.02 72.26 4.74Q72.94 4.47 73.66 4.47L73.66 4.47Q75.34 4.47 76.24 5.52Q77.14 6.57 77.14 8.71L77.14 8.71Q77.14 8.81 77.14 8.96Q77.14 9.11 77.12 9.24L77.12 9.24L71.42 9.24Q71.52 10.54 72.18 11.21Q72.83 11.88 74.22 11.88L74.22 11.88Q75.01 11.88 75.54 11.74Q76.08 11.61 76.35 11.48L76.35 11.48L76.56 12.73Q76.29 12.87 75.61 13.03Q74.93 13.19 74.06 13.19L74.06 13.19Q72.98 13.19 72.18 12.86Q71.39 12.54 70.88 11.96Q70.37 11.38 70.12 10.59Q69.87 9.80 69.87 8.86ZM71.46 8.04L75.58 8.04Q75.60 7.03 75.08 6.38Q74.56 5.74 73.65 5.74L73.65 5.74Q73.14 5.74 72.74 5.94Q72.35 6.14 72.08 6.46Q71.81 6.78 71.66 7.19Q71.50 7.61 71.46 8.04L71.46 8.04ZM86.02 1.80L86.02 1.80Q88.35 1.80 89.61 2.69Q90.86 3.58 90.86 5.34L90.86 5.34Q90.86 6.30 90.52 6.98Q90.18 7.66 89.53 8.08Q88.88 8.50 87.95 8.70Q87.02 8.89 85.86 8.89L85.86 8.89L84.62 8.89L84.62 13L83.07 13L83.07 2.07Q83.73 1.91 84.54 1.86Q85.34 1.80 86.02 1.80ZM86.14 3.16L86.14 3.16Q85.15 3.16 84.62 3.21L84.62 3.21L84.62 7.56L85.79 7.56Q86.59 7.56 87.23 7.46Q87.87 7.35 88.31 7.10Q88.75 6.86 88.99 6.42Q89.23 5.99 89.23 5.32L89.23 5.32Q89.23 4.68 88.98 4.26Q88.74 3.85 88.31 3.60Q87.89 3.35 87.33 3.26Q86.77 3.16 86.14 3.16ZM99.71 8.84L99.71 8.84Q99.71 9.83 99.42 10.63Q99.14 11.43 98.62 12.01Q98.10 12.58 97.38 12.90Q96.66 13.21 95.81 13.21L95.81 13.21Q94.96 13.21 94.24 12.90Q93.52 12.58 93 12.01Q92.48 11.43 92.19 10.63Q91.90 9.83 91.90 8.84L91.90 8.84Q91.90 7.86 92.19 7.06Q92.48 6.25 93 5.67Q93.52 5.10 94.24 4.78Q94.96 4.47 95.81 4.47L95.81 4.47Q96.66 4.47 97.38 4.78Q98.10 5.10 98.62 5.67Q99.14 6.25 99.42 7.06Q99.71 7.86 99.71 8.84ZM98.16 8.84L98.16 8.84Q98.16 7.43 97.53 6.61Q96.90 5.78 95.81 5.78L95.81 5.78Q94.72 5.78 94.09 6.61Q93.46 7.43 93.46 8.84L93.46 8.84Q93.46 10.25 94.09 11.07Q94.72 11.90 95.81 11.90L95.81 11.90Q96.90 11.90 97.53 11.07Q98.16 10.25 98.16 8.84ZM109.70 13L108.40 13Q107.95 11.85 107.45 10.37Q106.94 8.89 106.53 7.29L106.53 7.29Q106.11 8.89 105.62 10.37Q105.12 11.85 104.67 13L104.67 13L103.38 13Q102.64 11.35 101.94 9.24Q101.23 7.13 100.61 4.68L100.61 4.68L102.21 4.68Q102.37 5.43 102.59 6.31Q102.82 7.19 103.06 8.07Q103.31 8.95 103.58 9.77Q103.86 10.58 104.10 11.19L104.10 11.19Q104.37 10.44 104.63 9.60Q104.90 8.76 105.14 7.90Q105.38 7.05 105.59 6.22Q105.81 5.40 105.97 4.68L105.97 4.68L107.20 4.68Q107.34 5.40 107.55 6.22Q107.76 7.05 108 7.90Q108.24 8.76 108.50 9.60Q108.77 10.44 109.04 11.19L109.04 11.19Q109.28 10.58 109.54 9.77Q109.81 8.95 110.06 8.07Q110.32 7.19 110.54 6.31Q110.77 5.43 110.93 4.68L110.93 4.68L112.46 4.68Q111.84 7.13 111.14 9.24Q110.43 11.35 109.70 13L109.70 13ZM113.57 8.86L113.57 8.86Q113.57 7.75 113.89 6.93Q114.21 6.10 114.74 5.56Q115.26 5.02 115.95 4.74Q116.64 4.47 117.36 4.47L117.36 4.47Q119.04 4.47 119.94 5.52Q120.83 6.57 120.83 8.71L120.83 8.71Q120.83 8.81 120.83 8.96Q120.83 9.11 120.82 9.24L120.82 9.24L115.12 9.24Q115.22 10.54 115.87 11.21Q116.53 11.88 117.92 11.88L117.92 11.88Q118.70 11.88 119.24 11.74Q119.78 11.61 120.05 11.48L120.05 11.48L120.26 12.73Q119.98 12.87 119.30 13.03Q118.62 13.19 117.76 13.19L117.76 13.19Q116.67 13.19 115.88 12.86Q115.09 12.54 114.58 11.96Q114.06 11.38 113.82 10.59Q113.57 9.80 113.57 8.86ZM115.15 8.04L119.28 8.04Q119.30 7.03 118.78 6.38Q118.26 5.74 117.34 5.74L117.34 5.74Q116.83 5.74 116.44 5.94Q116.05 6.14 115.78 6.46Q115.50 6.78 115.35 7.19Q115.20 7.61 115.15 8.04L115.15 8.04ZM126.05 4.50L126.05 4.50Q126.24 4.50 126.49 4.53Q126.74 4.55 126.98 4.59Q127.22 4.63 127.42 4.67Q127.62 4.71 127.71 4.74L127.71 4.74L127.46 6.04Q127.28 5.98 126.87 5.89Q126.46 5.80 125.82 5.80L125.82 5.80Q125.41 5.80 125 5.89Q124.59 5.98 124.46 6.01L124.46 6.01L124.46 13L122.98 13L122.98 5.03Q123.50 4.84 124.29 4.67Q125.07 4.50 126.05 4.50ZM140.19 8.84L140.19 8.84Q140.19 9.83 139.90 10.63Q139.62 11.43 139.10 12.01Q138.58 12.58 137.86 12.90Q137.14 13.21 136.29 13.21L136.29 13.21Q135.44 13.21 134.72 12.90Q134 12.58 133.48 12.01Q132.96 11.43 132.67 10.63Q132.38 9.83 132.38 8.84L132.38 8.84Q132.38 7.86 132.67 7.06Q132.96 6.25 133.48 5.67Q134 5.10 134.72 4.78Q135.44 4.47 136.29 4.47L136.29 4.47Q137.14 4.47 137.86 4.78Q138.58 5.10 139.10 5.67Q139.62 6.25 139.90 7.06Q140.19 7.86 140.19 8.84ZM138.64 8.84L138.64 8.84Q138.64 7.43 138.01 6.61Q137.38 5.78 136.29 5.78L136.29 5.78Q135.20 5.78 134.57 6.61Q133.94 7.43 133.94 8.84L133.94 8.84Q133.94 10.25 134.57 11.07Q135.20 11.90 136.29 11.90L136.29 11.90Q137.38 11.90 138.01 11.07Q138.64 10.25 138.64 8.84ZM145.54 0.58L145.54 0.58Q146.19 0.58 146.66 0.68Q147.14 0.78 147.33 0.86L147.33 0.86L147.06 2.14Q146.86 2.04 146.51 1.95Q146.16 1.86 145.65 1.86L145.65 1.86Q144.61 1.86 144.19 2.43Q143.78 3 143.78 3.96L143.78 3.96L143.78 4.68L146.98 4.68L146.98 5.93L143.78 5.93L143.78 13L142.29 13L142.29 3.93Q142.29 2.33 143.07 1.46Q143.86 0.58 145.54 0.58ZM159.42 13L152.26 13L152.26 1.91L159.02 1.91L159.02 3.24L153.81 3.24L153.81 6.54L158.45 6.54L158.45 7.83L153.81 7.83L153.81 11.67L159.42 11.67L159.42 13ZM161.30 13L161.30 4.92Q161.81 4.79 162.66 4.65Q163.50 4.50 164.61 4.50L164.61 4.50Q165.60 4.50 166.26 4.78Q166.91 5.06 167.30 5.57Q167.70 6.07 167.86 6.78Q168.02 7.48 168.02 8.33L168.02 8.33L168.02 13L166.53 13L166.53 8.65Q166.53 7.88 166.42 7.34Q166.32 6.79 166.08 6.46Q165.84 6.12 165.44 5.97Q165.04 5.82 164.45 5.82L164.45 5.82Q164.21 5.82 163.95 5.83Q163.70 5.85 163.46 5.87Q163.23 5.90 163.05 5.93Q162.86 5.96 162.78 5.98L162.78 5.98L162.78 13L161.30 13ZM175.70 12.52L175.70 12.17Q175.50 12.30 174.95 12.50Q174.40 12.70 173.66 12.70L173.66 12.70Q172.91 12.70 172.25 12.46Q171.58 12.22 171.09 11.71Q170.59 11.21 170.30 10.46Q170.02 9.70 170.02 8.66L170.02 8.66Q170.02 7.75 170.29 6.99Q170.56 6.23 171.08 5.68Q171.60 5.13 172.35 4.82Q173.10 4.50 174.05 4.50L174.05 4.50Q175.09 4.50 175.86 4.66Q176.64 4.81 177.17 4.94L177.17 4.94L177.17 12.36Q177.17 14.28 176.18 15.14Q175.18 16.01 173.17 16.01L173.17 16.01Q172.38 16.01 171.69 15.88Q170.99 15.75 170.48 15.58L170.48 15.58L170.75 14.28Q171.20 14.46 171.85 14.59Q172.50 14.73 173.20 14.73L173.20 14.73Q174.53 14.73 175.11 14.20Q175.70 13.67 175.70 12.52L175.70 12.52ZM175.68 10.86L175.68 5.99Q175.46 5.93 175.08 5.87Q174.70 5.82 174.06 5.82L174.06 5.82Q172.86 5.82 172.22 6.60Q171.57 7.38 171.57 8.68L171.57 8.68Q171.57 9.40 171.75 9.91Q171.94 10.42 172.25 10.76Q172.56 11.10 172.97 11.26Q173.38 11.42 173.81 11.42L173.81 11.42Q174.40 11.42 174.90 11.25Q175.39 11.08 175.68 10.86L175.68 10.86ZM182.54 11.93L182.54 11.93Q183.07 11.93 183.48 11.90Q183.89 11.88 184.16 11.82L184.16 11.82L184.16 9.34Q184.00 9.26 183.64 9.20Q183.28 9.14 182.77 9.14L182.77 9.14Q182.43 9.14 182.06 9.19Q181.68 9.24 181.37 9.39Q181.06 9.54 180.85 9.81Q180.64 10.07 180.64 10.50L180.64 10.50Q180.64 11.30 181.15 11.62Q181.66 11.93 182.54 11.93ZM182.42 4.47L182.42 4.47Q183.31 4.47 183.93 4.70Q184.54 4.94 184.92 5.36Q185.30 5.78 185.46 6.37Q185.62 6.95 185.62 7.66L185.62 7.66L185.62 12.86Q185.42 12.89 185.08 12.94Q184.74 13 184.30 13.05Q183.87 13.10 183.37 13.14Q182.86 13.18 182.37 13.18L182.37 13.18Q181.66 13.18 181.07 13.03Q180.48 12.89 180.05 12.58Q179.62 12.26 179.38 11.75Q179.14 11.24 179.14 10.52L179.14 10.52Q179.14 9.83 179.42 9.34Q179.70 8.84 180.18 8.54Q180.66 8.23 181.30 8.09Q181.94 7.94 182.64 7.94L182.64 7.94Q182.86 7.94 183.10 7.97Q183.34 7.99 183.56 8.03Q183.78 8.07 183.94 8.10Q184.10 8.14 184.16 8.15L184.16 8.15L184.16 7.74Q184.16 7.37 184.08 7.01Q184.00 6.65 183.79 6.37Q183.58 6.09 183.22 5.92Q182.86 5.75 182.29 5.75L182.29 5.75Q181.55 5.75 181.00 5.86Q180.45 5.96 180.18 6.07L180.18 6.07L180.00 4.84Q180.29 4.71 180.96 4.59Q181.63 4.47 182.42 4.47ZM193.30 12.52L193.30 12.17Q193.10 12.30 192.55 12.50Q192.00 12.70 191.26 12.70L191.26 12.70Q190.51 12.70 189.85 12.46Q189.18 12.22 188.69 11.71Q188.19 11.21 187.90 10.46Q187.62 9.70 187.62 8.66L187.62 8.66Q187.62 7.75 187.89 6.99Q188.16 6.23 188.68 5.68Q189.20 5.13 189.95 4.82Q190.70 4.50 191.65 4.50L191.65 4.50Q192.69 4.50 193.46 4.66Q194.24 4.81 194.77 4.94L194.77 4.94L194.77 12.36Q194.77 14.28 193.78 15.14Q192.78 16.01 190.77 16.01L190.77 16.01Q189.98 16.01 189.29 15.88Q188.59 15.75 188.08 15.58L188.08 15.58L188.35 14.28Q188.80 14.46 189.45 14.59Q190.10 14.73 190.80 14.73L190.80 14.73Q192.13 14.73 192.71 14.20Q193.30 13.67 193.30 12.52L193.30 12.52ZM193.28 10.86L193.28 5.99Q193.06 5.93 192.68 5.87Q192.30 5.82 191.66 5.82L191.66 5.82Q190.46 5.82 189.82 6.60Q189.17 7.38 189.17 8.68L189.17 8.68Q189.17 9.40 189.35 9.91Q189.54 10.42 189.85 10.76Q190.16 11.10 190.57 11.26Q190.98 11.42 191.41 11.42L191.41 11.42Q192.00 11.42 192.50 11.25Q192.99 11.08 193.28 10.86L193.28 10.86ZM196.86 8.86L196.86 8.86Q196.86 7.75 197.18 6.93Q197.50 6.10 198.03 5.56Q198.56 5.02 199.25 4.74Q199.94 4.47 200.66 4.47L200.66 4.47Q202.34 4.47 203.23 5.52Q204.13 6.57 204.13 8.71L204.13 8.71Q204.13 8.81 204.13 8.96Q204.13 9.11 204.11 9.24L204.11 9.24L198.42 9.24Q198.51 10.54 199.17 11.21Q199.82 11.88 201.22 11.88L201.22 11.88Q202.00 11.88 202.54 11.74Q203.07 11.61 203.34 11.48L203.34 11.48L203.55 12.73Q203.28 12.87 202.60 13.03Q201.92 13.19 201.06 13.19L201.06 13.19Q199.97 13.19 199.18 12.86Q198.38 12.54 197.87 11.96Q197.36 11.38 197.11 10.59Q196.86 9.80 196.86 8.86ZM198.45 8.04L202.58 8.04Q202.59 7.03 202.07 6.38Q201.55 5.74 200.64 5.74L200.64 5.74Q200.13 5.74 199.74 5.94Q199.34 6.14 199.07 6.46Q198.80 6.78 198.65 7.19Q198.50 7.61 198.45 8.04L198.45 8.04ZM206.27 13L206.27 4.92Q206.78 4.79 207.62 4.65Q208.46 4.50 209.57 4.50L209.57 4.50Q210.37 4.50 210.91 4.72Q211.46 4.94 211.82 5.35L211.82 5.35Q211.94 5.27 212.18 5.13Q212.42 4.98 212.77 4.85Q213.12 4.71 213.55 4.61Q213.98 4.50 214.48 4.50L214.48 4.50Q215.44 4.50 216.05 4.78Q216.66 5.06 217.00 5.58Q217.34 6.09 217.46 6.79Q217.58 7.50 217.58 8.33L217.58 8.33L217.58 13L216.10 13L216.10 8.65Q216.10 7.91 216.02 7.38Q215.95 6.86 215.75 6.50Q215.55 6.15 215.21 5.98Q214.86 5.82 214.32 5.82L214.32 5.82Q213.57 5.82 213.08 6.02Q212.59 6.22 212.42 6.38L212.42 6.38Q212.54 6.79 212.61 7.29Q212.67 7.78 212.67 8.33L212.67 8.33L212.67 13L211.18 13L211.18 8.65Q211.18 7.91 211.10 7.38Q211.02 6.86 210.82 6.50Q210.62 6.15 210.28 5.98Q209.94 5.82 209.41 5.82L209.41 5.82Q209.18 5.82 208.93 5.83Q208.67 5.85 208.44 5.87Q208.21 5.90 208.02 5.93Q207.82 5.96 207.76 5.98L207.76 5.98L207.76 13L206.27 13ZM219.58 8.86L219.58 8.86Q219.58 7.75 219.90 6.93Q220.22 6.10 220.75 5.56Q221.28 5.02 221.97 4.74Q222.66 4.47 223.38 4.47L223.38 4.47Q225.06 4.47 225.95 5.52Q226.85 6.57 226.85 8.71L226.85 8.71Q226.85 8.81 226.85 8.96Q226.85 9.11 226.83 9.24L226.83 9.24L221.14 9.24Q221.23 10.54 221.89 11.21Q222.54 11.88 223.94 11.88L223.94 11.88Q224.72 11.88 225.26 11.74Q225.79 11.61 226.06 11.48L226.06 11.48L226.27 12.73Q226.00 12.87 225.32 13.03Q224.64 13.19 223.78 13.19L223.78 13.19Q222.69 13.19 221.90 12.86Q221.10 12.54 220.59 11.96Q220.08 11.38 219.83 10.59Q219.58 9.80 219.58 8.86ZM221.17 8.04L225.30 8.04Q225.31 7.03 224.79 6.38Q224.27 5.74 223.36 5.74L223.36 5.74Q222.85 5.74 222.46 5.94Q222.06 6.14 221.79 6.46Q221.52 6.78 221.37 7.19Q221.22 7.61 221.17 8.04L221.17 8.04ZM228.99 13L228.99 4.92Q229.50 4.79 230.35 4.65Q231.20 4.50 232.30 4.50L232.30 4.50Q233.30 4.50 233.95 4.78Q234.61 5.06 235.00 5.57Q235.39 6.07 235.55 6.78Q235.71 7.48 235.71 8.33L235.71 8.33L235.71 13L234.22 13L234.22 8.65Q234.22 7.88 234.12 7.34Q234.02 6.79 233.78 6.46Q233.54 6.12 233.14 5.97Q232.74 5.82 232.14 5.82L232.14 5.82Q231.90 5.82 231.65 5.83Q231.39 5.85 231.16 5.87Q230.93 5.90 230.74 5.93Q230.56 5.96 230.48 5.98L230.48 5.98L230.48 13L228.99 13ZM239.57 2.10L239.57 4.68L242.72 4.68L242.72 5.93L239.57 5.93L239.57 9.77Q239.57 10.39 239.66 10.80Q239.76 11.21 239.95 11.44Q240.14 11.67 240.43 11.77Q240.72 11.86 241.10 11.86L241.10 11.86Q241.78 11.86 242.18 11.71Q242.59 11.56 242.75 11.50L242.75 11.50L243.04 12.73Q242.82 12.84 242.26 13.01Q241.70 13.18 240.98 13.18L240.98 13.18Q240.13 13.18 239.58 12.96Q239.02 12.74 238.69 12.31Q238.35 11.88 238.22 11.25Q238.08 10.62 238.08 9.78L238.08 9.78L238.08 2.36L239.57 2.10ZM249.79 4.68L249.79 13L248.30 13L248.30 4.68L249.79 4.68ZM249.04 3.18L249.04 3.18Q248.64 3.18 248.36 2.91Q248.08 2.65 248.08 2.20L248.08 2.20Q248.08 1.75 248.36 1.49Q248.64 1.22 249.04 1.22L249.04 1.22Q249.44 1.22 249.72 1.49Q250.00 1.75 250.00 2.20L250.00 2.20Q250.00 2.65 249.72 2.91Q249.44 3.18 249.04 3.18ZM252.35 13L252.35 4.92Q252.86 4.79 253.71 4.65Q254.56 4.50 255.66 4.50L255.66 4.50Q256.66 4.50 257.31 4.78Q257.97 5.06 258.36 5.57Q258.75 6.07 258.91 6.78Q259.07 7.48 259.07 8.33L259.07 8.33L259.07 13L257.58 13L257.58 8.65Q257.58 7.88 257.48 7.34Q257.38 6.79 257.14 6.46Q256.90 6.12 256.50 5.97Q256.10 5.82 255.50 5.82L255.50 5.82Q255.26 5.82 255.01 5.83Q254.75 5.85 254.52 5.87Q254.29 5.90 254.10 5.93Q253.92 5.96 253.84 5.98L253.84 5.98L253.84 13L252.35 13ZM269.52 13L267.97 13L267.97 8.55Q266.86 6.84 265.89 5.18Q264.91 3.51 264.05 1.91L264.05 1.91L265.87 1.91Q266.48 3.22 267.23 4.58Q267.98 5.93 268.78 7.18L268.78 7.18Q269.57 5.93 270.32 4.58Q271.07 3.22 271.70 1.91L271.70 1.91L273.42 1.91Q272.56 3.51 271.58 5.17Q270.61 6.82 269.52 8.52L269.52 8.52L269.52 13ZM281.36 8.84L281.36 8.84Q281.36 9.83 281.07 10.63Q280.78 11.43 280.26 12.01Q279.74 12.58 279.02 12.90Q278.30 13.21 277.46 13.21L277.46 13.21Q276.61 13.21 275.89 12.90Q275.17 12.58 274.65 12.01Q274.13 11.43 273.84 10.63Q273.55 9.83 273.55 8.84L273.55 8.84Q273.55 7.86 273.84 7.06Q274.13 6.25 274.65 5.67Q275.17 5.10 275.89 4.78Q276.61 4.47 277.46 4.47L277.46 4.47Q278.30 4.47 279.02 4.78Q279.74 5.10 280.26 5.67Q280.78 6.25 281.07 7.06Q281.36 7.86 281.36 8.84ZM279.81 8.84L279.81 8.84Q279.81 7.43 279.18 6.61Q278.54 5.78 277.46 5.78L277.46 5.78Q276.37 5.78 275.74 6.61Q275.10 7.43 275.10 8.84L275.10 8.84Q275.10 10.25 275.74 11.07Q276.37 11.90 277.46 11.90L277.46 11.90Q278.54 11.90 279.18 11.07Q279.81 10.25 279.81 8.84ZM290.08 4.68L290.08 12.76Q289.57 12.89 288.73 13.03Q287.89 13.18 286.78 13.18L286.78 13.18Q285.82 13.18 285.17 12.90Q284.51 12.62 284.11 12.10Q283.71 11.59 283.54 10.90Q283.36 10.20 283.36 9.35L283.36 9.35L283.36 4.68L284.85 4.68L284.85 9.03Q284.85 10.55 285.33 11.21Q285.81 11.86 286.94 11.86L286.94 11.86Q287.18 11.86 287.44 11.85Q287.70 11.83 287.92 11.81Q288.14 11.78 288.33 11.76Q288.51 11.74 288.59 11.70L288.59 11.70L288.59 4.68L290.08 4.68ZM295.71 4.50L295.71 4.50Q295.90 4.50 296.15 4.53Q296.40 4.55 296.64 4.59Q296.88 4.63 297.08 4.67Q297.28 4.71 297.38 4.74L297.38 4.74L297.12 6.04Q296.94 5.98 296.54 5.89Q296.13 5.80 295.49 5.80L295.49 5.80Q295.07 5.80 294.66 5.89Q294.26 5.98 294.13 6.01L294.13 6.01L294.13 13L292.64 13L292.64 5.03Q293.17 4.84 293.95 4.67Q294.74 4.50 295.71 4.50ZM309.78 13L302.61 13L302.61 1.91L309.38 1.91L309.38 3.24L304.16 3.24L304.16 6.54L308.80 6.54L308.80 7.83L304.16 7.83L304.16 11.67L309.78 11.67L309.78 13ZM316.21 4.68L317.74 4.68Q317.12 7.02 316.28 9.16Q315.44 11.30 314.66 13L314.66 13L313.31 13Q312.53 11.30 311.69 9.16Q310.85 7.02 310.22 4.68L310.22 4.68L311.82 4.68Q312.02 5.46 312.28 6.35Q312.54 7.24 312.84 8.11Q313.14 8.98 313.44 9.80Q313.74 10.62 314.02 11.26L314.02 11.26Q314.29 10.62 314.59 9.80Q314.90 8.98 315.19 8.11Q315.49 7.24 315.75 6.35Q316.02 5.46 316.21 4.68L316.21 4.68ZM318.59 8.86L318.59 8.86Q318.59 7.75 318.91 6.93Q319.23 6.10 319.76 5.56Q320.29 5.02 320.98 4.74Q321.66 4.47 322.38 4.47L322.38 4.47Q324.06 4.47 324.96 5.52Q325.86 6.57 325.86 8.71L325.86 8.71Q325.86 8.81 325.86 8.96Q325.86 9.11 325.84 9.24L325.84 9.24L320.14 9.24Q320.24 10.54 320.90 11.21Q321.55 11.88 322.94 11.88L322.94 11.88Q323.73 11.88 324.26 11.74Q324.80 11.61 325.07 11.48L325.07 11.48L325.28 12.73Q325.01 12.87 324.33 13.03Q323.65 13.19 322.78 13.19L322.78 13.19Q321.70 13.19 320.90 12.86Q320.11 12.54 319.60 11.96Q319.09 11.38 318.84 10.59Q318.59 9.80 318.59 8.86ZM320.18 8.04L324.30 8.04Q324.32 7.03 323.80 6.38Q323.28 5.74 322.37 5.74L322.37 5.74Q321.86 5.74 321.46 5.94Q321.07 6.14 320.80 6.46Q320.53 6.78 320.38 7.19Q320.22 7.61 320.18 8.04L320.18 8.04ZM328.00 13L328.00 4.92Q328.51 4.79 329.36 4.65Q330.21 4.50 331.31 4.50L331.31 4.50Q332.30 4.50 332.96 4.78Q333.62 5.06 334.01 5.57Q334.40 6.07 334.56 6.78Q334.72 7.48 334.72 8.33L334.72 8.33L334.72 13L333.23 13L333.23 8.65Q333.23 7.88 333.13 7.34Q333.02 6.79 332.78 6.46Q332.54 6.12 332.14 5.97Q331.74 5.82 331.15 5.82L331.15 5.82Q330.91 5.82 330.66 5.83Q330.40 5.85 330.17 5.87Q329.94 5.90 329.75 5.93Q329.57 5.96 329.49 5.98L329.49 5.98L329.49 13L328.00 13ZM338.58 2.10L338.58 4.68L341.73 4.68L341.73 5.93L338.58 5.93L338.58 9.77Q338.58 10.39 338.67 10.80Q338.77 11.21 338.96 11.44Q339.15 11.67 339.44 11.77Q339.73 11.86 340.11 11.86L340.11 11.86Q340.78 11.86 341.19 11.71Q341.60 11.56 341.76 11.50L341.76 11.50L342.05 12.73Q341.82 12.84 341.26 13.01Q340.70 13.18 339.98 13.18L339.98 13.18Q339.14 13.18 338.58 12.96Q338.03 12.74 337.70 12.31Q337.36 11.88 337.22 11.25Q337.09 10.62 337.09 9.78L337.09 9.78L337.09 2.36L338.58 2.10ZM345.55 11.93L345.55 11.93Q346.46 11.93 346.90 11.69Q347.34 11.45 347.34 10.92L347.34 10.92Q347.34 10.38 346.91 10.06Q346.48 9.74 345.49 9.34L345.49 9.34Q345.01 9.14 344.57 8.94Q344.13 8.74 343.81 8.47Q343.49 8.20 343.30 7.82Q343.10 7.43 343.10 6.87L343.10 6.87Q343.10 5.77 343.92 5.12Q344.74 4.47 346.14 4.47L346.14 4.47Q346.50 4.47 346.85 4.51Q347.20 4.55 347.50 4.61Q347.81 4.66 348.04 4.73Q348.27 4.79 348.40 4.84L348.40 4.84L348.13 6.12Q347.89 5.99 347.38 5.86Q346.86 5.72 346.14 5.72L346.14 5.72Q345.52 5.72 345.06 5.97Q344.59 6.22 344.59 6.74L344.59 6.74Q344.59 7.02 344.70 7.22Q344.80 7.43 345.02 7.60Q345.23 7.77 345.55 7.91Q345.87 8.06 346.32 8.22L346.32 8.22Q346.91 8.44 347.38 8.66Q347.84 8.87 348.17 9.16Q348.50 9.45 348.67 9.86Q348.85 10.26 348.85 10.86L348.85 10.86Q348.85 12.01 347.99 12.60Q347.14 13.19 345.55 13.19L345.55 13.19Q344.45 13.19 343.82 13.01Q343.20 12.82 342.98 12.73L342.98 12.73L343.25 11.45Q343.50 11.54 344.06 11.74Q344.62 11.93 345.55 11.93ZM352.48 1.91L352.48 4.92Q352.48 6.26 352.38 7.36Q352.29 8.46 352.14 9.54L352.14 9.54L351.22 9.54Q351.07 8.46 350.98 7.36Q350.88 6.26 350.88 4.92L350.88 4.92L350.88 1.91L352.48 1.91ZM352.75 12.14L352.75 12.14Q352.75 12.57 352.46 12.89Q352.18 13.21 351.68 13.21L351.68 13.21Q351.18 13.21 350.90 12.89Q350.61 12.57 350.61 12.14L350.61 12.14Q350.61 11.70 350.90 11.38Q351.18 11.06 351.68 11.06L351.68 11.06Q352.18 11.06 352.46 11.38Q352.75 11.70 352.75 12.14Z"/></svg></svg>