<svg width="360" height="388" viewBox="0 0 360 388" fill="none" xmlns="http://www.w3.org/2000/svg">
<path d="M320.704 60.7012H343.02V51.2709H320.704V60.7012Z" stroke="#EBEBEB" stroke-width="0.75" stroke-miterlimit="10"/>
<path d="M333.161 48.8125H355.477V39.3822H333.161V48.8125Z" stroke="#EBEBEB" stroke-width="0.75" stroke-miterlimit="10"/>
<path d="M179.633 153.514H201.949V144.083H179.633V153.514Z" stroke="#EBEBEB" stroke-width="0.75" stroke-miterlimit="10"/>
<path d="M192.079 141.623H214.395V132.193H192.079V141.623Z" stroke="#EBEBEB" stroke-width="0.75" stroke-miterlimit="10"/>
<path d="M204.477 153.514H226.793V144.083H204.477V153.514Z" stroke="#EBEBEB" stroke-width="0.75" stroke-miterlimit="10"/>
<path d="M3.78575 48.8125H26.1016V39.3822H3.78575V48.8125Z" stroke="#EBEBEB" stroke-width="0.75" stroke-miterlimit="10"/>
<path d="M16.2428 270.553H38.5586V261.122H16.2428V270.553Z" stroke="#EBEBEB" stroke-width="0.75" stroke-miterlimit="10"/>
<path d="M3.78575 258.662H26.1016V249.232H3.78575V258.662Z" stroke="#EBEBEB" stroke-width="0.75" stroke-miterlimit="10"/>
<path d="M320.704 270.553H343.02V261.122H320.704V270.553Z" stroke="#EBEBEB" stroke-width="0.75" stroke-miterlimit="10"/>
<path d="M144.926 355.251V249.352L167.452 218.6V161.016" stroke="#EBEBEB" stroke-miterlimit="10"/>
<path d="M165.457 159.051C165.457 159.448 165.575 159.836 165.796 160.166C166.016 160.496 166.33 160.753 166.697 160.905C167.064 161.056 167.468 161.095 167.857 161.017C168.246 160.939 168.604 160.747 168.884 160.466C169.164 160.185 169.355 159.826 169.431 159.437C169.507 159.047 169.467 158.644 169.313 158.277C169.16 157.911 168.902 157.598 168.571 157.379C168.24 157.159 167.851 157.043 167.454 157.045C167.191 157.045 166.931 157.097 166.688 157.198C166.445 157.299 166.225 157.447 166.039 157.633C165.853 157.819 165.707 158.04 165.607 158.284C165.507 158.527 165.456 158.788 165.457 159.051V159.051Z" stroke="#EBEBEB" stroke-miterlimit="10"/>
<path d="M150.734 355.251V253.068L173.261 222.316V182.084" stroke="#EBEBEB" stroke-miterlimit="10"/>
<path d="M171.254 180.111C171.252 180.508 171.368 180.896 171.588 181.227C171.807 181.558 172.12 181.817 172.486 181.97C172.853 182.123 173.256 182.164 173.646 182.087C174.035 182.011 174.394 181.82 174.675 181.54C174.956 181.26 175.148 180.903 175.226 180.513C175.304 180.124 175.265 179.72 175.113 179.353C174.962 178.986 174.705 178.673 174.375 178.452C174.045 178.231 173.657 178.113 173.26 178.113C172.729 178.113 172.22 178.323 171.844 178.698C171.468 179.072 171.256 179.58 171.254 180.111V180.111Z" stroke="#EBEBEB" stroke-miterlimit="10"/>
<path d="M139.34 355.25V215.01" stroke="#EBEBEB" stroke-miterlimit="10"/>
<path d="M137.332 213.003C137.33 213.4 137.447 213.789 137.666 214.12C137.885 214.451 138.198 214.709 138.564 214.862C138.931 215.015 139.334 215.056 139.724 214.98C140.114 214.903 140.472 214.713 140.753 214.433C141.034 214.153 141.226 213.795 141.304 213.406C141.382 213.017 141.343 212.613 141.192 212.246C141.04 211.879 140.783 211.565 140.453 211.344C140.123 211.124 139.735 211.006 139.338 211.006C138.807 211.006 138.298 211.216 137.922 211.59C137.547 211.965 137.334 212.473 137.332 213.003V213.003Z" stroke="#EBEBEB" stroke-miterlimit="10"/>
<path d="M133.955 355.249V283.97L118.668 255.131V203.412" stroke="#EBEBEB" stroke-miterlimit="10"/>
<path d="M116.664 201.414C116.664 201.811 116.782 202.198 117.002 202.528C117.223 202.858 117.536 203.115 117.902 203.267C118.269 203.419 118.672 203.459 119.061 203.381C119.45 203.304 119.808 203.113 120.088 202.832C120.369 202.552 120.56 202.194 120.637 201.805C120.714 201.416 120.675 201.013 120.523 200.646C120.371 200.28 120.114 199.967 119.784 199.746C119.454 199.526 119.067 199.408 118.67 199.408C118.406 199.407 118.145 199.458 117.901 199.559C117.657 199.659 117.436 199.807 117.249 199.993C117.063 200.18 116.915 200.401 116.814 200.645C116.714 200.889 116.663 201.15 116.664 201.414V201.414Z" stroke="#EBEBEB" stroke-miterlimit="10"/>
<path d="M128.6 355.249V287.054L110.574 255.165V221.109" stroke="#EBEBEB" stroke-miterlimit="10"/>
<path d="M108.57 219.114C108.569 219.512 108.685 219.9 108.904 220.231C109.124 220.562 109.436 220.82 109.803 220.974C110.169 221.127 110.573 221.168 110.962 221.091C111.352 221.015 111.71 220.824 111.991 220.544C112.273 220.264 112.465 219.907 112.543 219.517C112.621 219.128 112.581 218.724 112.43 218.357C112.278 217.99 112.021 217.677 111.691 217.456C111.361 217.235 110.973 217.117 110.576 217.117C110.046 217.119 109.539 217.33 109.163 217.704C108.788 218.078 108.575 218.585 108.57 219.114V219.114Z" stroke="#EBEBEB" stroke-miterlimit="10"/>
<path d="M62.2539 31.6534V0" stroke="#C7C7C7" stroke-miterlimit="10"/>
<path d="M81.8148 50.4976L80.2389 53.9612H44.2706L42.7031 50.4976L58.0158 39.9043H66.5022L81.8148 50.4976Z" fill="#EBEBEB"/>
<path d="M67.5632 29.6895L66.5014 39.9035H58.015L56.9531 29.6895H67.5632Z" fill="#DBDBDB"/>
<path d="M81.8148 50.5059L80.2389 53.9611H44.2706L42.7031 50.5059H81.8148Z" fill="#DBDBDB"/>
<path d="M140.512 31.6534V0" stroke="#C7C7C7" stroke-miterlimit="10"/>
<path d="M160.065 50.4976L158.489 53.9612H122.521L120.953 50.4976L136.266 39.9043H144.752L160.065 50.4976Z" fill="#EBEBEB"/>
<path d="M145.813 29.6895L144.751 39.9035H136.265L135.203 29.6895H145.813Z" fill="#DBDBDB"/>
<path d="M160.065 50.5059L158.489 53.9611H122.521L120.953 50.5059H160.065Z" fill="#DBDBDB"/>
<path d="M218.758 31.6534V0" stroke="#C7C7C7" stroke-miterlimit="10"/>
<path d="M238.311 50.4976L236.743 53.9612H200.767L199.199 50.4976L214.512 39.9043H222.998L238.311 50.4976Z" fill="#EBEBEB"/>
<path d="M224.059 29.6895L222.997 39.9035H214.511L213.449 29.6895H224.059Z" fill="#DBDBDB"/>
<path d="M238.311 50.5059L236.735 53.9611H200.767L199.199 50.5059H238.311Z" fill="#DBDBDB"/>
<path d="M297.008 31.6534V0" stroke="#C7C7C7" stroke-miterlimit="10"/>
<path d="M316.569 50.4976L314.993 53.9612H279.017L277.449 50.4976L292.77 39.9043H301.248L316.569 50.4976Z" fill="#EBEBEB"/>
<path d="M302.309 29.6895L301.247 39.9035H292.769L291.699 29.6895H302.309Z" fill="#DBDBDB"/>
<path d="M316.561 50.5059L314.993 53.9611H279.017L277.449 50.5059H316.561Z" fill="#DBDBDB"/>
<path d="M123.832 388C173.359 388 213.509 381.589 213.509 373.681C213.509 365.774 173.359 359.363 123.832 359.363C74.3056 359.363 34.1562 365.774 34.1562 373.681C34.1562 381.589 74.3056 388 123.832 388Z" fill="#EBEBEB"/>
<path d="M249.061 148.676H194.266V355.291H249.061V148.676Z" fill="#37474F"/>
<path d="M349.901 148.676H249.059V355.291H349.901V148.676Z" fill="#455A64"/>
<path d="M343.608 328.492H256.629V348.583H343.608V328.492Z" fill="#37474F"/>
<path d="M309.796 331.811H260.285V333.504H309.796V331.811Z" fill="#455A64"/>
<path d="M309.796 334.752H260.285V336.446H309.796V334.752Z" fill="#455A64"/>
<path d="M309.796 337.693H260.285V339.387H309.796V337.693Z" fill="#455A64"/>
<path d="M309.796 340.627H260.285V342.321H309.796V340.627Z" fill="#455A64"/>
<path d="M309.796 343.568H260.285V345.262H309.796V343.568Z" fill="#455A64"/>
<path d="M318.824 333.496C318.824 333.829 318.725 334.155 318.54 334.432C318.355 334.71 318.092 334.926 317.784 335.053C317.476 335.181 317.137 335.214 316.81 335.149C316.483 335.084 316.183 334.924 315.947 334.688C315.711 334.452 315.551 334.152 315.486 333.825C315.42 333.498 315.454 333.159 315.581 332.851C315.709 332.543 315.925 332.28 316.202 332.095C316.479 331.909 316.805 331.811 317.139 331.811C317.586 331.811 318.014 331.988 318.33 332.304C318.647 332.62 318.824 333.049 318.824 333.496Z" fill="#FBCA7A"/>
<path d="M324.367 333.496C324.367 333.829 324.268 334.155 324.083 334.432C323.898 334.71 323.635 334.926 323.327 335.053C323.019 335.181 322.68 335.214 322.353 335.149C322.026 335.084 321.725 334.924 321.49 334.688C321.254 334.452 321.094 334.152 321.028 333.825C320.963 333.498 320.997 333.159 321.124 332.851C321.252 332.543 321.468 332.28 321.745 332.095C322.022 331.909 322.348 331.811 322.682 331.811C323.129 331.811 323.557 331.988 323.873 332.304C324.189 332.62 324.367 333.049 324.367 333.496Z" fill="#FBCA7A"/>
<path d="M329.914 333.496C329.914 333.829 329.815 334.155 329.63 334.432C329.445 334.71 329.181 334.926 328.873 335.053C328.565 335.181 328.227 335.214 327.9 335.149C327.573 335.084 327.272 334.924 327.037 334.688C326.801 334.452 326.64 334.152 326.575 333.825C326.51 333.498 326.544 333.159 326.671 332.851C326.799 332.543 327.015 332.28 327.292 332.095C327.569 331.909 327.895 331.811 328.228 331.811C328.675 331.811 329.104 331.988 329.42 332.304C329.736 332.62 329.914 333.049 329.914 333.496Z" fill="#FBCA7A"/>
<path d="M335.453 333.496C335.453 333.829 335.354 334.155 335.169 334.432C334.984 334.71 334.721 334.926 334.413 335.053C334.105 335.181 333.766 335.214 333.439 335.149C333.112 335.084 332.811 334.924 332.576 334.688C332.34 334.452 332.179 334.152 332.114 333.825C332.049 333.498 332.083 333.159 332.21 332.851C332.338 332.543 332.554 332.28 332.831 332.095C333.108 331.909 333.434 331.811 333.768 331.811C334.215 331.811 334.643 331.988 334.959 332.304C335.275 332.62 335.453 333.049 335.453 333.496Z" fill="#FBCA7A"/>
<path d="M340.996 333.496C340.996 333.829 340.897 334.155 340.712 334.432C340.527 334.71 340.263 334.926 339.955 335.053C339.648 335.181 339.309 335.214 338.982 335.149C338.655 335.084 338.354 334.924 338.119 334.688C337.883 334.452 337.722 334.152 337.657 333.825C337.592 333.498 337.626 333.159 337.753 332.851C337.881 332.543 338.097 332.28 338.374 332.095C338.651 331.909 338.977 331.811 339.31 331.811C339.758 331.811 340.186 331.988 340.502 332.304C340.818 332.62 340.996 333.049 340.996 333.496Z" fill="#FBCA7A"/>
<path d="M318.824 338.537C318.824 338.87 318.725 339.196 318.54 339.473C318.355 339.751 318.092 339.967 317.784 340.094C317.476 340.222 317.137 340.255 316.81 340.19C316.483 340.125 316.183 339.965 315.947 339.729C315.711 339.493 315.551 339.193 315.486 338.866C315.42 338.539 315.454 338.2 315.581 337.892C315.709 337.584 315.925 337.321 316.202 337.136C316.479 336.95 316.805 336.852 317.139 336.852C317.586 336.852 318.014 337.029 318.33 337.345C318.647 337.661 318.824 338.09 318.824 338.537Z" fill="#FBCA7A"/>
<path d="M324.367 338.537C324.367 338.87 324.268 339.196 324.083 339.473C323.898 339.751 323.635 339.967 323.327 340.094C323.019 340.222 322.68 340.255 322.353 340.19C322.026 340.125 321.725 339.965 321.49 339.729C321.254 339.493 321.094 339.193 321.028 338.866C320.963 338.539 320.997 338.2 321.124 337.892C321.252 337.584 321.468 337.321 321.745 337.136C322.022 336.95 322.348 336.852 322.682 336.852C323.129 336.852 323.557 337.029 323.873 337.345C324.189 337.661 324.367 338.09 324.367 338.537Z" fill="#FBCA7A"/>
<path d="M329.914 338.537C329.914 338.87 329.815 339.196 329.63 339.473C329.445 339.751 329.181 339.967 328.873 340.094C328.565 340.222 328.227 340.255 327.9 340.19C327.573 340.125 327.272 339.965 327.037 339.729C326.801 339.493 326.64 339.193 326.575 338.866C326.51 338.539 326.544 338.2 326.671 337.892C326.799 337.584 327.015 337.321 327.292 337.136C327.569 336.95 327.895 336.852 328.228 336.852C328.675 336.852 329.104 337.029 329.42 337.345C329.736 337.661 329.914 338.09 329.914 338.537Z" fill="#FBCA7A"/>
<path d="M335.453 338.537C335.453 338.87 335.354 339.196 335.169 339.473C334.984 339.751 334.721 339.967 334.413 340.094C334.105 340.222 333.766 340.255 333.439 340.19C333.112 340.125 332.811 339.965 332.576 339.729C332.34 339.493 332.179 339.193 332.114 338.866C332.049 338.539 332.083 338.2 332.21 337.892C332.338 337.584 332.554 337.321 332.831 337.136C333.108 336.95 333.434 336.852 333.768 336.852C334.215 336.852 334.643 337.029 334.959 337.345C335.275 337.661 335.453 338.09 335.453 338.537Z" fill="#FBCA7A"/>
<path d="M340.996 338.537C340.996 338.87 340.897 339.196 340.712 339.473C340.527 339.751 340.263 339.967 339.955 340.094C339.648 340.222 339.309 340.255 338.982 340.19C338.655 340.125 338.354 339.965 338.119 339.729C337.883 339.493 337.722 339.193 337.657 338.866C337.592 338.539 337.626 338.2 337.753 337.892C337.881 337.584 338.097 337.321 338.374 337.136C338.651 336.95 338.977 336.852 339.31 336.852C339.758 336.852 340.186 337.029 340.502 337.345C340.818 337.661 340.996 338.09 340.996 338.537Z" fill="#FBCA7A"/>
<path d="M317.146 345.271C318.077 345.271 318.832 344.517 318.832 343.586C318.832 342.655 318.077 341.9 317.146 341.9C316.216 341.9 315.461 342.655 315.461 343.586C315.461 344.517 316.216 345.271 317.146 345.271Z" fill="#FBCA7A"/>
<path d="M324.367 343.586C324.367 343.919 324.268 344.245 324.083 344.522C323.898 344.799 323.635 345.015 323.327 345.143C323.019 345.271 322.68 345.304 322.353 345.239C322.026 345.174 321.725 345.013 321.49 344.778C321.254 344.542 321.094 344.242 321.028 343.915C320.963 343.588 320.997 343.249 321.124 342.941C321.252 342.633 321.468 342.37 321.745 342.184C322.022 341.999 322.348 341.9 322.682 341.9C323.129 341.9 323.557 342.078 323.873 342.394C324.189 342.71 324.367 343.139 324.367 343.586Z" fill="#FBCA7A"/>
<path d="M328.228 345.271C329.159 345.271 329.914 344.517 329.914 343.586C329.914 342.655 329.159 341.9 328.228 341.9C327.298 341.9 326.543 342.655 326.543 343.586C326.543 344.517 327.298 345.271 328.228 345.271Z" fill="#FBCA7A"/>
<path d="M335.453 343.586C335.453 343.919 335.354 344.245 335.169 344.522C334.984 344.799 334.721 345.015 334.413 345.143C334.105 345.271 333.766 345.304 333.439 345.239C333.112 345.174 332.811 345.013 332.576 344.778C332.34 344.542 332.179 344.242 332.114 343.915C332.049 343.588 332.083 343.249 332.21 342.941C332.338 342.633 332.554 342.37 332.831 342.184C333.108 341.999 333.434 341.9 333.768 341.9C334.215 341.9 334.643 342.078 334.959 342.394C335.275 342.71 335.453 343.139 335.453 343.586Z" fill="#FBCA7A"/>
<path d="M340.996 343.586C340.996 343.919 340.897 344.245 340.712 344.522C340.527 344.799 340.263 345.015 339.955 345.143C339.648 345.271 339.309 345.304 338.982 345.239C338.655 345.174 338.354 345.013 338.119 344.778C337.883 344.542 337.722 344.242 337.657 343.915C337.592 343.588 337.626 343.249 337.753 342.941C337.881 342.633 338.097 342.37 338.374 342.184C338.651 341.999 338.977 341.9 339.31 341.9C339.758 341.9 340.186 342.078 340.502 342.394C340.818 342.71 340.996 343.139 340.996 343.586Z" fill="#FBCA7A"/>
<path d="M313.246 331.811H312.277V345.261H313.246V331.811Z" fill="#263238"/>
<path d="M343.608 304.289H256.629V324.38H343.608V304.289Z" fill="#37474F"/>
<path d="M309.796 307.602H260.285V309.295H309.796V307.602Z" fill="#455A64"/>
<path d="M309.796 310.543H260.285V312.237H309.796V310.543Z" fill="#455A64"/>
<path d="M309.796 313.482H260.285V315.176H309.796V313.482Z" fill="#455A64"/>
<path d="M309.796 316.424H260.285V318.118H309.796V316.424Z" fill="#455A64"/>
<path d="M309.796 319.355H260.285V321.049H309.796V319.355Z" fill="#455A64"/>
<path d="M318.824 309.287C318.824 309.62 318.725 309.946 318.54 310.223C318.355 310.501 318.092 310.717 317.784 310.844C317.476 310.972 317.137 311.005 316.81 310.94C316.483 310.875 316.183 310.715 315.947 310.479C315.711 310.243 315.551 309.943 315.486 309.616C315.42 309.289 315.454 308.95 315.581 308.642C315.709 308.334 315.925 308.071 316.202 307.886C316.479 307.7 316.805 307.602 317.139 307.602C317.586 307.602 318.014 307.779 318.33 308.095C318.647 308.411 318.824 308.84 318.824 309.287Z" fill="#FBCA7A"/>
<path d="M324.367 309.287C324.367 309.62 324.268 309.946 324.083 310.223C323.898 310.501 323.635 310.717 323.327 310.844C323.019 310.972 322.68 311.005 322.353 310.94C322.026 310.875 321.725 310.715 321.49 310.479C321.254 310.243 321.094 309.943 321.028 309.616C320.963 309.289 320.997 308.95 321.124 308.642C321.252 308.334 321.468 308.071 321.745 307.886C322.022 307.7 322.348 307.602 322.682 307.602C323.129 307.602 323.557 307.779 323.873 308.095C324.189 308.411 324.367 308.84 324.367 309.287Z" fill="#FBCA7A"/>
<path d="M329.914 309.287C329.914 309.62 329.815 309.946 329.63 310.223C329.445 310.501 329.181 310.717 328.873 310.844C328.565 310.972 328.227 311.005 327.9 310.94C327.573 310.875 327.272 310.715 327.037 310.479C326.801 310.243 326.64 309.943 326.575 309.616C326.51 309.289 326.544 308.95 326.671 308.642C326.799 308.334 327.015 308.071 327.292 307.886C327.569 307.7 327.895 307.602 328.228 307.602C328.675 307.602 329.104 307.779 329.42 308.095C329.736 308.411 329.914 308.84 329.914 309.287Z" fill="#FBCA7A"/>
<path d="M335.453 309.287C335.453 309.62 335.354 309.946 335.169 310.223C334.984 310.501 334.721 310.717 334.413 310.844C334.105 310.972 333.766 311.005 333.439 310.94C333.112 310.875 332.811 310.715 332.576 310.479C332.34 310.243 332.179 309.943 332.114 309.616C332.049 309.289 332.083 308.95 332.21 308.642C332.338 308.334 332.554 308.071 332.831 307.886C333.108 307.7 333.434 307.602 333.768 307.602C334.215 307.602 334.643 307.779 334.959 308.095C335.275 308.411 335.453 308.84 335.453 309.287Z" fill="#FBCA7A"/>
<path d="M340.996 309.287C340.996 309.62 340.897 309.946 340.712 310.223C340.527 310.501 340.263 310.717 339.955 310.844C339.648 310.972 339.309 311.005 338.982 310.94C338.655 310.875 338.354 310.715 338.119 310.479C337.883 310.243 337.722 309.943 337.657 309.616C337.592 309.289 337.626 308.95 337.753 308.642C337.881 308.334 338.097 308.071 338.374 307.886C338.651 307.7 338.977 307.602 339.31 307.602C339.758 307.602 340.186 307.779 340.502 308.095C340.818 308.411 340.996 308.84 340.996 309.287Z" fill="#FBCA7A"/>
<path d="M318.824 314.342C318.824 314.675 318.725 315.001 318.54 315.278C318.355 315.555 318.092 315.771 317.784 315.899C317.476 316.026 317.137 316.06 316.81 315.995C316.483 315.93 316.183 315.769 315.947 315.534C315.711 315.298 315.551 314.997 315.486 314.671C315.42 314.344 315.454 314.005 315.581 313.697C315.709 313.389 315.925 313.126 316.202 312.94C316.479 312.755 316.805 312.656 317.139 312.656C317.586 312.656 318.014 312.834 318.33 313.15C318.647 313.466 318.824 313.895 318.824 314.342Z" fill="#FBCA7A"/>
<path d="M324.367 314.342C324.367 314.675 324.268 315.001 324.083 315.278C323.898 315.555 323.635 315.771 323.327 315.899C323.019 316.026 322.68 316.06 322.353 315.995C322.026 315.93 321.725 315.769 321.49 315.534C321.254 315.298 321.094 314.997 321.028 314.671C320.963 314.344 320.997 314.005 321.124 313.697C321.252 313.389 321.468 313.126 321.745 312.94C322.022 312.755 322.348 312.656 322.682 312.656C323.129 312.656 323.557 312.834 323.873 313.15C324.189 313.466 324.367 313.895 324.367 314.342Z" fill="#FBCA7A"/>
<path d="M329.914 314.342C329.914 314.675 329.815 315.001 329.63 315.278C329.445 315.555 329.181 315.771 328.873 315.899C328.565 316.026 328.227 316.06 327.9 315.995C327.573 315.93 327.272 315.769 327.037 315.534C326.801 315.298 326.64 314.997 326.575 314.671C326.51 314.344 326.544 314.005 326.671 313.697C326.799 313.389 327.015 313.126 327.292 312.94C327.569 312.755 327.895 312.656 328.228 312.656C328.675 312.656 329.104 312.834 329.42 313.15C329.736 313.466 329.914 313.895 329.914 314.342Z" fill="#FBCA7A"/>
<path d="M335.453 314.342C335.453 314.675 335.354 315.001 335.169 315.278C334.984 315.555 334.721 315.771 334.413 315.899C334.105 316.026 333.766 316.06 333.439 315.995C333.112 315.93 332.811 315.769 332.576 315.534C332.34 315.298 332.179 314.997 332.114 314.671C332.049 314.344 332.083 314.005 332.21 313.697C332.338 313.389 332.554 313.126 332.831 312.94C333.108 312.755 333.434 312.656 333.768 312.656C334.215 312.656 334.643 312.834 334.959 313.15C335.275 313.466 335.453 313.895 335.453 314.342Z" fill="#FBCA7A"/>
<path d="M340.996 314.342C340.996 314.675 340.897 315.001 340.712 315.278C340.527 315.555 340.263 315.771 339.955 315.899C339.648 316.026 339.309 316.06 338.982 315.995C338.655 315.93 338.354 315.769 338.119 315.534C337.883 315.298 337.722 314.997 337.657 314.671C337.592 314.344 337.626 314.005 337.753 313.697C337.881 313.389 338.097 313.126 338.374 312.94C338.651 312.755 338.977 312.656 339.31 312.656C339.758 312.656 340.186 312.834 340.502 313.15C340.818 313.466 340.996 313.895 340.996 314.342Z" fill="#FBCA7A"/>
<path d="M318.824 319.398C318.824 319.732 318.725 320.058 318.54 320.335C318.355 320.612 318.092 320.828 317.784 320.956C317.476 321.083 317.137 321.117 316.81 321.051C316.483 320.986 316.183 320.826 315.947 320.59C315.711 320.354 315.551 320.054 315.486 319.727C315.42 319.4 315.454 319.061 315.581 318.753C315.709 318.445 315.925 318.182 316.202 317.997C316.479 317.812 316.805 317.713 317.139 317.713C317.586 317.713 318.014 317.89 318.33 318.207C318.647 318.523 318.824 318.951 318.824 319.398Z" fill="#FBCA7A"/>
<path d="M324.367 319.398C324.367 319.732 324.268 320.058 324.083 320.335C323.898 320.612 323.635 320.828 323.327 320.956C323.019 321.083 322.68 321.117 322.353 321.051C322.026 320.986 321.725 320.826 321.49 320.59C321.254 320.354 321.094 320.054 321.028 319.727C320.963 319.4 320.997 319.061 321.124 318.753C321.252 318.445 321.468 318.182 321.745 317.997C322.022 317.812 322.348 317.713 322.682 317.713C323.129 317.713 323.557 317.89 323.873 318.207C324.189 318.523 324.367 318.951 324.367 319.398Z" fill="#FBCA7A"/>
<path d="M329.914 319.398C329.914 319.732 329.815 320.058 329.63 320.335C329.445 320.612 329.181 320.828 328.873 320.956C328.565 321.083 328.227 321.117 327.9 321.051C327.573 320.986 327.272 320.826 327.037 320.59C326.801 320.354 326.64 320.054 326.575 319.727C326.51 319.4 326.544 319.061 326.671 318.753C326.799 318.445 327.015 318.182 327.292 317.997C327.569 317.812 327.895 317.713 328.228 317.713C328.675 317.713 329.104 317.89 329.42 318.207C329.736 318.523 329.914 318.951 329.914 319.398Z" fill="#FBCA7A"/>
<path d="M335.453 319.398C335.453 319.732 335.354 320.058 335.169 320.335C334.984 320.612 334.721 320.828 334.413 320.956C334.105 321.083 333.766 321.117 333.439 321.051C333.112 320.986 332.811 320.826 332.576 320.59C332.34 320.354 332.179 320.054 332.114 319.727C332.049 319.4 332.083 319.061 332.21 318.753C332.338 318.445 332.554 318.182 332.831 317.997C333.108 317.812 333.434 317.713 333.768 317.713C334.215 317.713 334.643 317.89 334.959 318.207C335.275 318.523 335.453 318.951 335.453 319.398Z" fill="#FBCA7A"/>
<path d="M340.996 319.398C340.996 319.732 340.897 320.058 340.712 320.335C340.527 320.612 340.263 320.828 339.955 320.956C339.648 321.083 339.309 321.117 338.982 321.051C338.655 320.986 338.354 320.826 338.119 320.59C337.883 320.354 337.722 320.054 337.657 319.727C337.592 319.4 337.626 319.061 337.753 318.753C337.881 318.445 338.097 318.182 338.374 317.997C338.651 317.812 338.977 317.713 339.31 317.713C339.758 317.713 340.186 317.89 340.502 318.207C340.818 318.523 340.996 318.951 340.996 319.398Z" fill="#FBCA7A"/>
<path d="M313.246 307.602H312.277V321.052H313.246V307.602Z" fill="#263238"/>
<path d="M343.608 280.076H256.629V300.167H343.608V280.076Z" fill="#37474F"/>
<path d="M309.796 283.396H260.285V285.09H309.796V283.396Z" fill="#455A64"/>
<path d="M309.796 286.33H260.285V288.024H309.796V286.33Z" fill="#455A64"/>
<path d="M309.796 289.271H260.285V290.965H309.796V289.271Z" fill="#455A64"/>
<path d="M309.796 292.213H260.285V293.907H309.796V292.213Z" fill="#455A64"/>
<path d="M309.796 295.152H260.285V296.846H309.796V295.152Z" fill="#455A64"/>
<path d="M317.146 286.76C318.077 286.76 318.832 286.005 318.832 285.074C318.832 284.143 318.077 283.389 317.146 283.389C316.216 283.389 315.461 284.143 315.461 285.074C315.461 286.005 316.216 286.76 317.146 286.76Z" fill="#FBCA7A"/>
<path d="M324.367 285.074C324.367 285.408 324.268 285.733 324.083 286.011C323.898 286.288 323.635 286.504 323.327 286.631C323.019 286.759 322.68 286.792 322.353 286.727C322.026 286.662 321.725 286.502 321.49 286.266C321.254 286.03 321.094 285.73 321.028 285.403C320.963 285.076 320.997 284.737 321.124 284.429C321.252 284.121 321.468 283.858 321.745 283.673C322.022 283.488 322.348 283.389 322.682 283.389C323.129 283.389 323.557 283.566 323.873 283.882C324.189 284.198 324.367 284.627 324.367 285.074Z" fill="#FBCA7A"/>
<path d="M328.228 286.76C329.159 286.76 329.914 286.005 329.914 285.074C329.914 284.143 329.159 283.389 328.228 283.389C327.298 283.389 326.543 284.143 326.543 285.074C326.543 286.005 327.298 286.76 328.228 286.76Z" fill="#FBCA7A"/>
<path d="M335.453 285.074C335.453 285.408 335.354 285.733 335.169 286.011C334.984 286.288 334.721 286.504 334.413 286.631C334.105 286.759 333.766 286.792 333.439 286.727C333.112 286.662 332.811 286.502 332.576 286.266C332.34 286.03 332.179 285.73 332.114 285.403C332.049 285.076 332.083 284.737 332.21 284.429C332.338 284.121 332.554 283.858 332.831 283.673C333.108 283.488 333.434 283.389 333.768 283.389C334.215 283.389 334.643 283.566 334.959 283.882C335.275 284.198 335.453 284.627 335.453 285.074Z" fill="#FBCA7A"/>
<path d="M340.996 285.074C340.996 285.408 340.897 285.733 340.712 286.011C340.527 286.288 340.263 286.504 339.955 286.631C339.648 286.759 339.309 286.792 338.982 286.727C338.655 286.662 338.354 286.502 338.119 286.266C337.883 286.03 337.722 285.73 337.657 285.403C337.592 285.076 337.626 284.737 337.753 284.429C337.881 284.121 338.097 283.858 338.374 283.673C338.651 283.488 338.977 283.389 339.31 283.389C339.758 283.389 340.186 283.566 340.502 283.882C340.818 284.198 340.996 284.627 340.996 285.074Z" fill="#FBCA7A"/>
<path d="M318.824 290.121C318.824 290.454 318.725 290.78 318.54 291.057C318.355 291.335 318.092 291.551 317.784 291.678C317.476 291.806 317.137 291.839 316.81 291.774C316.483 291.709 316.183 291.549 315.947 291.313C315.711 291.077 315.551 290.777 315.486 290.45C315.42 290.123 315.454 289.784 315.581 289.476C315.709 289.168 315.925 288.905 316.202 288.72C316.479 288.534 316.805 288.436 317.139 288.436C317.586 288.436 318.014 288.613 318.33 288.929C318.647 289.245 318.824 289.674 318.824 290.121Z" fill="#FBCA7A"/>
<path d="M324.367 290.121C324.367 290.454 324.268 290.78 324.083 291.057C323.898 291.335 323.635 291.551 323.327 291.678C323.019 291.806 322.68 291.839 322.353 291.774C322.026 291.709 321.725 291.549 321.49 291.313C321.254 291.077 321.094 290.777 321.028 290.45C320.963 290.123 320.997 289.784 321.124 289.476C321.252 289.168 321.468 288.905 321.745 288.72C322.022 288.534 322.348 288.436 322.682 288.436C323.129 288.436 323.557 288.613 323.873 288.929C324.189 289.245 324.367 289.674 324.367 290.121Z" fill="#FBCA7A"/>
<path d="M329.914 290.121C329.914 290.454 329.815 290.78 329.63 291.057C329.445 291.335 329.181 291.551 328.873 291.678C328.565 291.806 328.227 291.839 327.9 291.774C327.573 291.709 327.272 291.549 327.037 291.313C326.801 291.077 326.64 290.777 326.575 290.45C326.51 290.123 326.544 289.784 326.671 289.476C326.799 289.168 327.015 288.905 327.292 288.72C327.569 288.534 327.895 288.436 328.228 288.436C328.675 288.436 329.104 288.613 329.42 288.929C329.736 289.245 329.914 289.674 329.914 290.121Z" fill="#FBCA7A"/>
<path d="M335.453 290.121C335.453 290.454 335.354 290.78 335.169 291.057C334.984 291.335 334.721 291.551 334.413 291.678C334.105 291.806 333.766 291.839 333.439 291.774C333.112 291.709 332.811 291.549 332.576 291.313C332.34 291.077 332.179 290.777 332.114 290.45C332.049 290.123 332.083 289.784 332.21 289.476C332.338 289.168 332.554 288.905 332.831 288.72C333.108 288.534 333.434 288.436 333.768 288.436C334.215 288.436 334.643 288.613 334.959 288.929C335.275 289.245 335.453 289.674 335.453 290.121Z" fill="#FBCA7A"/>
<path d="M340.996 290.121C340.996 290.454 340.897 290.78 340.712 291.057C340.527 291.335 340.263 291.551 339.955 291.678C339.648 291.806 339.309 291.839 338.982 291.774C338.655 291.709 338.354 291.549 338.119 291.313C337.883 291.077 337.722 290.777 337.657 290.45C337.592 290.123 337.626 289.784 337.753 289.476C337.881 289.168 338.097 288.905 338.374 288.72C338.651 288.534 338.977 288.436 339.31 288.436C339.758 288.436 340.186 288.613 340.502 288.929C340.818 289.245 340.996 289.674 340.996 290.121Z" fill="#FBCA7A"/>
<path d="M318.824 295.162C318.824 295.495 318.725 295.821 318.54 296.098C318.355 296.376 318.092 296.592 317.784 296.719C317.476 296.847 317.137 296.88 316.81 296.815C316.483 296.75 316.183 296.59 315.947 296.354C315.711 296.118 315.551 295.818 315.486 295.491C315.42 295.164 315.454 294.825 315.581 294.517C315.709 294.209 315.925 293.946 316.202 293.761C316.479 293.575 316.805 293.477 317.139 293.477C317.586 293.477 318.014 293.654 318.33 293.97C318.647 294.286 318.824 294.715 318.824 295.162Z" fill="#FBCA7A"/>
<path d="M324.367 295.162C324.367 295.495 324.268 295.821 324.083 296.098C323.898 296.376 323.635 296.592 323.327 296.719C323.019 296.847 322.68 296.88 322.353 296.815C322.026 296.75 321.725 296.59 321.49 296.354C321.254 296.118 321.094 295.818 321.028 295.491C320.963 295.164 320.997 294.825 321.124 294.517C321.252 294.209 321.468 293.946 321.745 293.761C322.022 293.575 322.348 293.477 322.682 293.477C323.129 293.477 323.557 293.654 323.873 293.97C324.189 294.286 324.367 294.715 324.367 295.162Z" fill="#FBCA7A"/>
<path d="M329.914 295.162C329.914 295.495 329.815 295.821 329.63 296.098C329.445 296.376 329.181 296.592 328.873 296.719C328.565 296.847 328.227 296.88 327.9 296.815C327.573 296.75 327.272 296.59 327.037 296.354C326.801 296.118 326.64 295.818 326.575 295.491C326.51 295.164 326.544 294.825 326.671 294.517C326.799 294.209 327.015 293.946 327.292 293.761C327.569 293.575 327.895 293.477 328.228 293.477C328.675 293.477 329.104 293.654 329.42 293.97C329.736 294.286 329.914 294.715 329.914 295.162Z" fill="#FBCA7A"/>
<path d="M335.453 295.162C335.453 295.495 335.354 295.821 335.169 296.098C334.984 296.376 334.721 296.592 334.413 296.719C334.105 296.847 333.766 296.88 333.439 296.815C333.112 296.75 332.811 296.59 332.576 296.354C332.34 296.118 332.179 295.818 332.114 295.491C332.049 295.164 332.083 294.825 332.21 294.517C332.338 294.209 332.554 293.946 332.831 293.761C333.108 293.575 333.434 293.477 333.768 293.477C334.215 293.477 334.643 293.654 334.959 293.97C335.275 294.286 335.453 294.715 335.453 295.162Z" fill="#FBCA7A"/>
<path d="M340.996 295.162C340.996 295.495 340.897 295.821 340.712 296.098C340.527 296.376 340.263 296.592 339.955 296.719C339.648 296.847 339.309 296.88 338.982 296.815C338.655 296.75 338.354 296.59 338.119 296.354C337.883 296.118 337.722 295.818 337.657 295.491C337.592 295.164 337.626 294.825 337.753 294.517C337.881 294.209 338.097 293.946 338.374 293.761C338.651 293.575 338.977 293.477 339.31 293.477C339.758 293.477 340.186 293.654 340.502 293.97C340.818 294.286 340.996 294.715 340.996 295.162Z" fill="#FBCA7A"/>
<path d="M313.246 283.396H312.277V296.847H313.246V283.396Z" fill="#263238"/>
<path d="M343.608 255.863H256.629V275.954H343.608V255.863Z" fill="#37474F"/>
<path d="M309.796 259.184H260.285V260.878H309.796V259.184Z" fill="#455A64"/>
<path d="M309.796 262.117H260.285V263.811H309.796V262.117Z" fill="#455A64"/>
<path d="M309.796 265.059H260.285V266.753H309.796V265.059Z" fill="#455A64"/>
<path d="M309.796 268H260.285V269.694H309.796V268Z" fill="#455A64"/>
<path d="M309.796 270.941H260.285V272.635H309.796V270.941Z" fill="#455A64"/>
<path d="M318.824 260.861C318.824 261.195 318.725 261.52 318.54 261.798C318.355 262.075 318.092 262.291 317.784 262.418C317.476 262.546 317.137 262.579 316.81 262.514C316.483 262.449 316.183 262.289 315.947 262.053C315.711 261.817 315.551 261.517 315.486 261.19C315.42 260.863 315.454 260.524 315.581 260.216C315.709 259.908 315.925 259.645 316.202 259.46C316.479 259.275 316.805 259.176 317.139 259.176C317.586 259.176 318.014 259.353 318.33 259.669C318.647 259.986 318.824 260.414 318.824 260.861Z" fill="#FBCA7A"/>
<path d="M324.367 260.861C324.367 261.195 324.268 261.52 324.083 261.798C323.898 262.075 323.635 262.291 323.327 262.418C323.019 262.546 322.68 262.579 322.353 262.514C322.026 262.449 321.725 262.289 321.49 262.053C321.254 261.817 321.094 261.517 321.028 261.19C320.963 260.863 320.997 260.524 321.124 260.216C321.252 259.908 321.468 259.645 321.745 259.46C322.022 259.275 322.348 259.176 322.682 259.176C323.129 259.176 323.557 259.353 323.873 259.669C324.189 259.986 324.367 260.414 324.367 260.861Z" fill="#FBCA7A"/>
<path d="M329.914 260.861C329.914 261.195 329.815 261.52 329.63 261.798C329.445 262.075 329.181 262.291 328.873 262.418C328.565 262.546 328.227 262.579 327.9 262.514C327.573 262.449 327.272 262.289 327.037 262.053C326.801 261.817 326.64 261.517 326.575 261.19C326.51 260.863 326.544 260.524 326.671 260.216C326.799 259.908 327.015 259.645 327.292 259.46C327.569 259.275 327.895 259.176 328.228 259.176C328.675 259.176 329.104 259.353 329.42 259.669C329.736 259.986 329.914 260.414 329.914 260.861Z" fill="#FBCA7A"/>
<path d="M335.453 260.861C335.453 261.195 335.354 261.52 335.169 261.798C334.984 262.075 334.721 262.291 334.413 262.418C334.105 262.546 333.766 262.579 333.439 262.514C333.112 262.449 332.811 262.289 332.576 262.053C332.34 261.817 332.179 261.517 332.114 261.19C332.049 260.863 332.083 260.524 332.21 260.216C332.338 259.908 332.554 259.645 332.831 259.46C333.108 259.275 333.434 259.176 333.768 259.176C334.215 259.176 334.643 259.353 334.959 259.669C335.275 259.986 335.453 260.414 335.453 260.861Z" fill="#FBCA7A"/>
<path d="M340.996 260.861C340.996 261.195 340.897 261.52 340.712 261.798C340.527 262.075 340.263 262.291 339.955 262.418C339.648 262.546 339.309 262.579 338.982 262.514C338.655 262.449 338.354 262.289 338.119 262.053C337.883 261.817 337.722 261.517 337.657 261.19C337.592 260.863 337.626 260.524 337.753 260.216C337.881 259.908 338.097 259.645 338.374 259.46C338.651 259.275 338.977 259.176 339.31 259.176C339.758 259.176 340.186 259.353 340.502 259.669C340.818 259.986 340.996 260.414 340.996 260.861Z" fill="#FBCA7A"/>
<path d="M317.146 267.596C318.077 267.596 318.832 266.841 318.832 265.91C318.832 264.979 318.077 264.225 317.146 264.225C316.216 264.225 315.461 264.979 315.461 265.91C315.461 266.841 316.216 267.596 317.146 267.596Z" fill="#FBCA7A"/>
<path d="M324.367 265.91C324.367 266.243 324.268 266.569 324.083 266.847C323.898 267.124 323.635 267.34 323.327 267.467C323.019 267.595 322.68 267.628 322.353 267.563C322.026 267.498 321.725 267.338 321.49 267.102C321.254 266.866 321.094 266.566 321.028 266.239C320.963 265.912 320.997 265.573 321.124 265.265C321.252 264.957 321.468 264.694 321.745 264.509C322.022 264.323 322.348 264.225 322.682 264.225C323.129 264.225 323.557 264.402 323.873 264.718C324.189 265.034 324.367 265.463 324.367 265.91Z" fill="#FBCA7A"/>
<path d="M328.228 267.596C329.159 267.596 329.914 266.841 329.914 265.91C329.914 264.979 329.159 264.225 328.228 264.225C327.298 264.225 326.543 264.979 326.543 265.91C326.543 266.841 327.298 267.596 328.228 267.596Z" fill="#FBCA7A"/>
<path d="M335.453 265.91C335.453 266.243 335.354 266.569 335.169 266.847C334.984 267.124 334.721 267.34 334.413 267.467C334.105 267.595 333.766 267.628 333.439 267.563C333.112 267.498 332.811 267.338 332.576 267.102C332.34 266.866 332.179 266.566 332.114 266.239C332.049 265.912 332.083 265.573 332.21 265.265C332.338 264.957 332.554 264.694 332.831 264.509C333.108 264.323 333.434 264.225 333.768 264.225C334.215 264.225 334.643 264.402 334.959 264.718C335.275 265.034 335.453 265.463 335.453 265.91Z" fill="#FBCA7A"/>
<path d="M340.996 265.91C340.996 266.243 340.897 266.569 340.712 266.847C340.527 267.124 340.263 267.34 339.955 267.467C339.648 267.595 339.309 267.628 338.982 267.563C338.655 267.498 338.354 267.338 338.119 267.102C337.883 266.866 337.722 266.566 337.657 266.239C337.592 265.912 337.626 265.573 337.753 265.265C337.881 264.957 338.097 264.694 338.374 264.509C338.651 264.323 338.977 264.225 339.31 264.225C339.758 264.225 340.186 264.402 340.502 264.718C340.818 265.034 340.996 265.463 340.996 265.91Z" fill="#FBCA7A"/>
<path d="M317.146 272.635C318.077 272.635 318.832 271.88 318.832 270.949C318.832 270.018 318.077 269.264 317.146 269.264C316.216 269.264 315.461 270.018 315.461 270.949C315.461 271.88 316.216 272.635 317.146 272.635Z" fill="#FBCA7A"/>
<path d="M324.367 270.949C324.367 271.283 324.268 271.608 324.083 271.886C323.898 272.163 323.635 272.379 323.327 272.506C323.019 272.634 322.68 272.667 322.353 272.602C322.026 272.537 321.725 272.377 321.49 272.141C321.254 271.905 321.094 271.605 321.028 271.278C320.963 270.951 320.997 270.612 321.124 270.304C321.252 269.996 321.468 269.733 321.745 269.548C322.022 269.363 322.348 269.264 322.682 269.264C323.129 269.264 323.557 269.441 323.873 269.757C324.189 270.073 324.367 270.502 324.367 270.949Z" fill="#FBCA7A"/>
<path d="M328.228 272.635C329.159 272.635 329.914 271.88 329.914 270.949C329.914 270.018 329.159 269.264 328.228 269.264C327.298 269.264 326.543 270.018 326.543 270.949C326.543 271.88 327.298 272.635 328.228 272.635Z" fill="#FBCA7A"/>
<path d="M335.453 270.949C335.453 271.283 335.354 271.608 335.169 271.886C334.984 272.163 334.721 272.379 334.413 272.506C334.105 272.634 333.766 272.667 333.439 272.602C333.112 272.537 332.811 272.377 332.576 272.141C332.34 271.905 332.179 271.605 332.114 271.278C332.049 270.951 332.083 270.612 332.21 270.304C332.338 269.996 332.554 269.733 332.831 269.548C333.108 269.363 333.434 269.264 333.768 269.264C334.215 269.264 334.643 269.441 334.959 269.757C335.275 270.073 335.453 270.502 335.453 270.949Z" fill="#FBCA7A"/>
<path d="M340.996 270.949C340.996 271.283 340.897 271.608 340.712 271.886C340.527 272.163 340.263 272.379 339.955 272.506C339.648 272.634 339.309 272.667 338.982 272.602C338.655 272.537 338.354 272.377 338.119 272.141C337.883 271.905 337.722 271.605 337.657 271.278C337.592 270.951 337.626 270.612 337.753 270.304C337.881 269.996 338.097 269.733 338.374 269.548C338.651 269.363 338.977 269.264 339.31 269.264C339.758 269.264 340.186 269.441 340.502 269.757C340.818 270.073 340.996 270.502 340.996 270.949Z" fill="#FBCA7A"/>
<path d="M313.246 259.184H312.277V272.634H313.246V259.184Z" fill="#263238"/>
<path d="M343.608 231.652H256.629V251.743H343.608V231.652Z" fill="#37474F"/>
<path d="M309.796 234.973H260.285V236.667H309.796V234.973Z" fill="#455A64"/>
<path d="M309.796 237.914H260.285V239.608H309.796V237.914Z" fill="#455A64"/>
<path d="M309.796 240.846H260.285V242.54H309.796V240.846Z" fill="#455A64"/>
<path d="M309.796 243.787H260.285V245.481H309.796V243.787Z" fill="#455A64"/>
<path d="M309.796 246.729H260.285V248.422H309.796V246.729Z" fill="#455A64"/>
<path d="M317.146 238.344C318.077 238.344 318.832 237.589 318.832 236.658C318.832 235.727 318.077 234.973 317.146 234.973C316.216 234.973 315.461 235.727 315.461 236.658C315.461 237.589 316.216 238.344 317.146 238.344Z" fill="#FBCA7A"/>
<path d="M324.367 236.658C324.367 236.991 324.268 237.317 324.083 237.595C323.898 237.872 323.635 238.088 323.327 238.215C323.019 238.343 322.68 238.376 322.353 238.311C322.026 238.246 321.725 238.086 321.49 237.85C321.254 237.614 321.094 237.314 321.028 236.987C320.963 236.66 320.997 236.321 321.124 236.013C321.252 235.705 321.468 235.442 321.745 235.257C322.022 235.072 322.348 234.973 322.682 234.973C323.129 234.973 323.557 235.15 323.873 235.466C324.189 235.782 324.367 236.211 324.367 236.658Z" fill="#FBCA7A"/>
<path d="M328.228 238.344C329.159 238.344 329.914 237.589 329.914 236.658C329.914 235.727 329.159 234.973 328.228 234.973C327.298 234.973 326.543 235.727 326.543 236.658C326.543 237.589 327.298 238.344 328.228 238.344Z" fill="#FBCA7A"/>
<path d="M335.453 236.658C335.453 236.991 335.354 237.317 335.169 237.595C334.984 237.872 334.721 238.088 334.413 238.215C334.105 238.343 333.766 238.376 333.439 238.311C333.112 238.246 332.811 238.086 332.576 237.85C332.34 237.614 332.179 237.314 332.114 236.987C332.049 236.66 332.083 236.321 332.21 236.013C332.338 235.705 332.554 235.442 332.831 235.257C333.108 235.072 333.434 234.973 333.768 234.973C334.215 234.973 334.643 235.15 334.959 235.466C335.275 235.782 335.453 236.211 335.453 236.658Z" fill="#FBCA7A"/>
<path d="M340.996 236.658C340.996 236.991 340.897 237.317 340.712 237.595C340.527 237.872 340.263 238.088 339.955 238.215C339.648 238.343 339.309 238.376 338.982 238.311C338.655 238.246 338.354 238.086 338.119 237.85C337.883 237.614 337.722 237.314 337.657 236.987C337.592 236.66 337.626 236.321 337.753 236.013C337.881 235.705 338.097 235.442 338.374 235.257C338.651 235.072 338.977 234.973 339.31 234.973C339.758 234.973 340.186 235.15 340.502 235.466C340.818 235.782 340.996 236.211 340.996 236.658Z" fill="#FBCA7A"/>
<path d="M317.146 243.383C318.077 243.383 318.832 242.628 318.832 241.697C318.832 240.766 318.077 240.012 317.146 240.012C316.216 240.012 315.461 240.766 315.461 241.697C315.461 242.628 316.216 243.383 317.146 243.383Z" fill="#FBCA7A"/>
<path d="M324.367 241.697C324.367 242.031 324.268 242.356 324.083 242.634C323.898 242.911 323.635 243.127 323.327 243.254C323.019 243.382 322.68 243.415 322.353 243.35C322.026 243.285 321.725 243.125 321.49 242.889C321.254 242.653 321.094 242.353 321.028 242.026C320.963 241.699 320.997 241.36 321.124 241.052C321.252 240.744 321.468 240.481 321.745 240.296C322.022 240.111 322.348 240.012 322.682 240.012C323.129 240.012 323.557 240.189 323.873 240.505C324.189 240.821 324.367 241.25 324.367 241.697Z" fill="#FBCA7A"/>
<path d="M328.228 243.383C329.159 243.383 329.914 242.628 329.914 241.697C329.914 240.766 329.159 240.012 328.228 240.012C327.298 240.012 326.543 240.766 326.543 241.697C326.543 242.628 327.298 243.383 328.228 243.383Z" fill="#FBCA7A"/>
<path d="M335.453 241.697C335.453 242.031 335.354 242.356 335.169 242.634C334.984 242.911 334.721 243.127 334.413 243.254C334.105 243.382 333.766 243.415 333.439 243.35C333.112 243.285 332.811 243.125 332.576 242.889C332.34 242.653 332.179 242.353 332.114 242.026C332.049 241.699 332.083 241.36 332.21 241.052C332.338 240.744 332.554 240.481 332.831 240.296C333.108 240.111 333.434 240.012 333.768 240.012C334.215 240.012 334.643 240.189 334.959 240.505C335.275 240.821 335.453 241.25 335.453 241.697Z" fill="#FBCA7A"/>
<path d="M340.996 241.697C340.996 242.031 340.897 242.356 340.712 242.634C340.527 242.911 340.263 243.127 339.955 243.254C339.648 243.382 339.309 243.415 338.982 243.35C338.655 243.285 338.354 243.125 338.119 242.889C337.883 242.653 337.722 242.353 337.657 242.026C337.592 241.699 337.626 241.36 337.753 241.052C337.881 240.744 338.097 240.481 338.374 240.296C338.651 240.111 338.977 240.012 339.31 240.012C339.758 240.012 340.186 240.189 340.502 240.505C340.818 240.821 340.996 241.25 340.996 241.697Z" fill="#FBCA7A"/>
<path d="M318.824 246.746C318.824 247.079 318.725 247.405 318.54 247.682C318.355 247.96 318.092 248.176 317.784 248.303C317.476 248.431 317.137 248.464 316.81 248.399C316.483 248.334 316.183 248.174 315.947 247.938C315.711 247.702 315.551 247.402 315.486 247.075C315.42 246.748 315.454 246.409 315.581 246.101C315.709 245.793 315.925 245.53 316.202 245.345C316.479 245.159 316.805 245.061 317.139 245.061C317.586 245.061 318.014 245.238 318.33 245.554C318.647 245.87 318.824 246.299 318.824 246.746Z" fill="#FBCA7A"/>
<path d="M324.367 246.746C324.367 247.079 324.268 247.405 324.083 247.682C323.898 247.96 323.635 248.176 323.327 248.303C323.019 248.431 322.68 248.464 322.353 248.399C322.026 248.334 321.725 248.174 321.49 247.938C321.254 247.702 321.094 247.402 321.028 247.075C320.963 246.748 320.997 246.409 321.124 246.101C321.252 245.793 321.468 245.53 321.745 245.345C322.022 245.159 322.348 245.061 322.682 245.061C323.129 245.061 323.557 245.238 323.873 245.554C324.189 245.87 324.367 246.299 324.367 246.746Z" fill="#FBCA7A"/>
<path d="M329.914 246.746C329.914 247.079 329.815 247.405 329.63 247.682C329.445 247.96 329.181 248.176 328.873 248.303C328.565 248.431 328.227 248.464 327.9 248.399C327.573 248.334 327.272 248.174 327.037 247.938C326.801 247.702 326.64 247.402 326.575 247.075C326.51 246.748 326.544 246.409 326.671 246.101C326.799 245.793 327.015 245.53 327.292 245.345C327.569 245.159 327.895 245.061 328.228 245.061C328.675 245.061 329.104 245.238 329.42 245.554C329.736 245.87 329.914 246.299 329.914 246.746Z" fill="#FBCA7A"/>
<path d="M335.453 246.746C335.453 247.079 335.354 247.405 335.169 247.682C334.984 247.96 334.721 248.176 334.413 248.303C334.105 248.431 333.766 248.464 333.439 248.399C333.112 248.334 332.811 248.174 332.576 247.938C332.34 247.702 332.179 247.402 332.114 247.075C332.049 246.748 332.083 246.409 332.21 246.101C332.338 245.793 332.554 245.53 332.831 245.345C333.108 245.159 333.434 245.061 333.768 245.061C334.215 245.061 334.643 245.238 334.959 245.554C335.275 245.87 335.453 246.299 335.453 246.746Z" fill="#FBCA7A"/>
<path d="M340.996 246.746C340.996 247.079 340.897 247.405 340.712 247.682C340.527 247.96 340.263 248.176 339.955 248.303C339.648 248.431 339.309 248.464 338.982 248.399C338.655 248.334 338.354 248.174 338.119 247.938C337.883 247.702 337.722 247.402 337.657 247.075C337.592 246.748 337.626 246.409 337.753 246.101C337.881 245.793 338.097 245.53 338.374 245.345C338.651 245.159 338.977 245.061 339.31 245.061C339.758 245.061 340.186 245.238 340.502 245.554C340.818 245.87 340.996 246.299 340.996 246.746Z" fill="#FBCA7A"/>
<path d="M313.246 234.973H312.277V248.423H313.246V234.973Z" fill="#263238"/>
<path d="M343.608 207.439H256.629V227.53H343.608V207.439Z" fill="#37474F"/>
<path d="M309.796 210.762H260.285V212.456H309.796V210.762Z" fill="#455A64"/>
<path d="M309.796 213.703H260.285V215.397H309.796V213.703Z" fill="#455A64"/>
<path d="M309.796 216.645H260.285V218.338H309.796V216.645Z" fill="#455A64"/>
<path d="M309.796 219.576H260.285V221.27H309.796V219.576Z" fill="#455A64"/>
<path d="M309.796 222.518H260.285V224.211H309.796V222.518Z" fill="#455A64"/>
<path d="M318.824 212.447C318.824 212.781 318.725 213.106 318.54 213.384C318.355 213.661 318.092 213.877 317.784 214.004C317.476 214.132 317.137 214.165 316.81 214.1C316.483 214.035 316.183 213.875 315.947 213.639C315.711 213.403 315.551 213.103 315.486 212.776C315.42 212.449 315.454 212.11 315.581 211.802C315.709 211.494 315.925 211.231 316.202 211.046C316.479 210.861 316.805 210.762 317.139 210.762C317.586 210.762 318.014 210.939 318.33 211.255C318.647 211.571 318.824 212 318.824 212.447Z" fill="#FBCA7A"/>
<path d="M324.367 212.447C324.367 212.781 324.268 213.106 324.083 213.384C323.898 213.661 323.635 213.877 323.327 214.004C323.019 214.132 322.68 214.165 322.353 214.1C322.026 214.035 321.725 213.875 321.49 213.639C321.254 213.403 321.094 213.103 321.028 212.776C320.963 212.449 320.997 212.11 321.124 211.802C321.252 211.494 321.468 211.231 321.745 211.046C322.022 210.861 322.348 210.762 322.682 210.762C323.129 210.762 323.557 210.939 323.873 211.255C324.189 211.571 324.367 212 324.367 212.447Z" fill="#FBCA7A"/>
<path d="M329.914 212.447C329.914 212.781 329.815 213.106 329.63 213.384C329.445 213.661 329.181 213.877 328.873 214.004C328.565 214.132 328.227 214.165 327.9 214.1C327.573 214.035 327.272 213.875 327.037 213.639C326.801 213.403 326.64 213.103 326.575 212.776C326.51 212.449 326.544 212.11 326.671 211.802C326.799 211.494 327.015 211.231 327.292 211.046C327.569 210.861 327.895 210.762 328.228 210.762C328.675 210.762 329.104 210.939 329.42 211.255C329.736 211.571 329.914 212 329.914 212.447Z" fill="#FBCA7A"/>
<path d="M335.453 212.447C335.453 212.781 335.354 213.106 335.169 213.384C334.984 213.661 334.721 213.877 334.413 214.004C334.105 214.132 333.766 214.165 333.439 214.1C333.112 214.035 332.811 213.875 332.576 213.639C332.34 213.403 332.179 213.103 332.114 212.776C332.049 212.449 332.083 212.11 332.21 211.802C332.338 211.494 332.554 211.231 332.831 211.046C333.108 210.861 333.434 210.762 333.768 210.762C334.215 210.762 334.643 210.939 334.959 211.255C335.275 211.571 335.453 212 335.453 212.447Z" fill="#FBCA7A"/>
<path d="M340.996 212.447C340.996 212.781 340.897 213.106 340.712 213.384C340.527 213.661 340.263 213.877 339.955 214.004C339.648 214.132 339.309 214.165 338.982 214.1C338.655 214.035 338.354 213.875 338.119 213.639C337.883 213.403 337.722 213.103 337.657 212.776C337.592 212.449 337.626 212.11 337.753 211.802C337.881 211.494 338.097 211.231 338.374 211.046C338.651 210.861 338.977 210.762 339.31 210.762C339.758 210.762 340.186 210.939 340.502 211.255C340.818 211.571 340.996 212 340.996 212.447Z" fill="#FBCA7A"/>
<path d="M318.824 217.486C318.824 217.82 318.725 218.145 318.54 218.423C318.355 218.7 318.092 218.916 317.784 219.043C317.476 219.171 317.137 219.204 316.81 219.139C316.483 219.074 316.183 218.914 315.947 218.678C315.711 218.442 315.551 218.142 315.486 217.815C315.42 217.488 315.454 217.149 315.581 216.841C315.709 216.533 315.925 216.27 316.202 216.085C316.479 215.9 316.805 215.801 317.139 215.801C317.586 215.801 318.014 215.978 318.33 216.294C318.647 216.611 318.824 217.039 318.824 217.486Z" fill="#FBCA7A"/>
<path d="M324.367 217.486C324.367 217.82 324.268 218.145 324.083 218.423C323.898 218.7 323.635 218.916 323.327 219.043C323.019 219.171 322.68 219.204 322.353 219.139C322.026 219.074 321.725 218.914 321.49 218.678C321.254 218.442 321.094 218.142 321.028 217.815C320.963 217.488 320.997 217.149 321.124 216.841C321.252 216.533 321.468 216.27 321.745 216.085C322.022 215.9 322.348 215.801 322.682 215.801C323.129 215.801 323.557 215.978 323.873 216.294C324.189 216.611 324.367 217.039 324.367 217.486Z" fill="#FBCA7A"/>
<path d="M329.914 217.486C329.914 217.82 329.815 218.145 329.63 218.423C329.445 218.7 329.181 218.916 328.873 219.043C328.565 219.171 328.227 219.204 327.9 219.139C327.573 219.074 327.272 218.914 327.037 218.678C326.801 218.442 326.64 218.142 326.575 217.815C326.51 217.488 326.544 217.149 326.671 216.841C326.799 216.533 327.015 216.27 327.292 216.085C327.569 215.9 327.895 215.801 328.228 215.801C328.675 215.801 329.104 215.978 329.42 216.294C329.736 216.611 329.914 217.039 329.914 217.486Z" fill="#FBCA7A"/>
<path d="M335.453 217.486C335.453 217.82 335.354 218.145 335.169 218.423C334.984 218.7 334.721 218.916 334.413 219.043C334.105 219.171 333.766 219.204 333.439 219.139C333.112 219.074 332.811 218.914 332.576 218.678C332.34 218.442 332.179 218.142 332.114 217.815C332.049 217.488 332.083 217.149 332.21 216.841C332.338 216.533 332.554 216.27 332.831 216.085C333.108 215.9 333.434 215.801 333.768 215.801C334.215 215.801 334.643 215.978 334.959 216.294C335.275 216.611 335.453 217.039 335.453 217.486Z" fill="#FBCA7A"/>
<path d="M340.996 217.486C340.996 217.82 340.897 218.145 340.712 218.423C340.527 218.7 340.263 218.916 339.955 219.043C339.648 219.171 339.309 219.204 338.982 219.139C338.655 219.074 338.354 218.914 338.119 218.678C337.883 218.442 337.722 218.142 337.657 217.815C337.592 217.488 337.626 217.149 337.753 216.841C337.881 216.533 338.097 216.27 338.374 216.085C338.651 215.9 338.977 215.801 339.31 215.801C339.758 215.801 340.186 215.978 340.502 216.294C340.818 216.611 340.996 217.039 340.996 217.486Z" fill="#FBCA7A"/>
<path d="M318.824 222.533C318.824 222.866 318.725 223.192 318.54 223.47C318.355 223.747 318.092 223.963 317.784 224.09C317.476 224.218 317.137 224.251 316.81 224.186C316.483 224.121 316.183 223.961 315.947 223.725C315.711 223.489 315.551 223.189 315.486 222.862C315.42 222.535 315.454 222.196 315.581 221.888C315.709 221.58 315.925 221.317 316.202 221.132C316.479 220.947 316.805 220.848 317.139 220.848C317.586 220.848 318.014 221.025 318.33 221.341C318.647 221.657 318.824 222.086 318.824 222.533Z" fill="#FBCA7A"/>
<path d="M324.367 222.533C324.367 222.866 324.268 223.192 324.083 223.47C323.898 223.747 323.635 223.963 323.327 224.09C323.019 224.218 322.68 224.251 322.353 224.186C322.026 224.121 321.725 223.961 321.49 223.725C321.254 223.489 321.094 223.189 321.028 222.862C320.963 222.535 320.997 222.196 321.124 221.888C321.252 221.58 321.468 221.317 321.745 221.132C322.022 220.947 322.348 220.848 322.682 220.848C323.129 220.848 323.557 221.025 323.873 221.341C324.189 221.657 324.367 222.086 324.367 222.533Z" fill="#FBCA7A"/>
<path d="M329.914 222.533C329.914 222.866 329.815 223.192 329.63 223.47C329.445 223.747 329.181 223.963 328.873 224.09C328.565 224.218 328.227 224.251 327.9 224.186C327.573 224.121 327.272 223.961 327.037 223.725C326.801 223.489 326.64 223.189 326.575 222.862C326.51 222.535 326.544 222.196 326.671 221.888C326.799 221.58 327.015 221.317 327.292 221.132C327.569 220.947 327.895 220.848 328.228 220.848C328.675 220.848 329.104 221.025 329.42 221.341C329.736 221.657 329.914 222.086 329.914 222.533Z" fill="#FBCA7A"/>
<path d="M335.453 222.533C335.453 222.866 335.354 223.192 335.169 223.47C334.984 223.747 334.721 223.963 334.413 224.09C334.105 224.218 333.766 224.251 333.439 224.186C333.112 224.121 332.811 223.961 332.576 223.725C332.34 223.489 332.179 223.189 332.114 222.862C332.049 222.535 332.083 222.196 332.21 221.888C332.338 221.58 332.554 221.317 332.831 221.132C333.108 220.947 333.434 220.848 333.768 220.848C334.215 220.848 334.643 221.025 334.959 221.341C335.275 221.657 335.453 222.086 335.453 222.533Z" fill="#FBCA7A"/>
<path d="M340.996 222.533C340.996 222.866 340.897 223.192 340.712 223.47C340.527 223.747 340.263 223.963 339.955 224.09C339.648 224.218 339.309 224.251 338.982 224.186C338.655 224.121 338.354 223.961 338.119 223.725C337.883 223.489 337.722 223.189 337.657 222.862C337.592 222.535 337.626 222.196 337.753 221.888C337.881 221.58 338.097 221.317 338.374 221.132C338.651 220.947 338.977 220.848 339.31 220.848C339.758 220.848 340.186 221.025 340.502 221.341C340.818 221.657 340.996 222.086 340.996 222.533Z" fill="#FBCA7A"/>
<path d="M313.246 210.762H312.277V224.212H313.246V210.762Z" fill="#263238"/>
<path d="M343.608 183.236H256.629V203.327H343.608V183.236Z" fill="#37474F"/>
<path d="M309.796 186.549H260.285V188.243H309.796V186.549Z" fill="#455A64"/>
<path d="M309.796 189.49H260.285V191.184H309.796V189.49Z" fill="#455A64"/>
<path d="M309.796 192.432H260.285V194.126H309.796V192.432Z" fill="#455A64"/>
<path d="M309.796 195.373H260.285V197.067H309.796V195.373Z" fill="#455A64"/>
<path d="M309.796 198.305H260.285V199.999H309.796V198.305Z" fill="#455A64"/>
<path d="M318.824 188.234C318.824 188.568 318.725 188.894 318.54 189.171C318.355 189.448 318.092 189.664 317.784 189.792C317.476 189.919 317.137 189.952 316.81 189.887C316.483 189.822 316.183 189.662 315.947 189.426C315.711 189.19 315.551 188.89 315.486 188.563C315.42 188.236 315.454 187.897 315.581 187.589C315.709 187.281 315.925 187.018 316.202 186.833C316.479 186.648 316.805 186.549 317.139 186.549C317.586 186.549 318.014 186.726 318.33 187.042C318.647 187.359 318.824 187.787 318.824 188.234Z" fill="#FBCA7A"/>
<path d="M324.367 188.234C324.367 188.568 324.268 188.894 324.083 189.171C323.898 189.448 323.635 189.664 323.327 189.792C323.019 189.919 322.68 189.952 322.353 189.887C322.026 189.822 321.725 189.662 321.49 189.426C321.254 189.19 321.094 188.89 321.028 188.563C320.963 188.236 320.997 187.897 321.124 187.589C321.252 187.281 321.468 187.018 321.745 186.833C322.022 186.648 322.348 186.549 322.682 186.549C323.129 186.549 323.557 186.726 323.873 187.042C324.189 187.359 324.367 187.787 324.367 188.234Z" fill="#FBCA7A"/>
<path d="M329.914 188.234C329.914 188.568 329.815 188.894 329.63 189.171C329.445 189.448 329.181 189.664 328.873 189.792C328.565 189.919 328.227 189.952 327.9 189.887C327.573 189.822 327.272 189.662 327.037 189.426C326.801 189.19 326.64 188.89 326.575 188.563C326.51 188.236 326.544 187.897 326.671 187.589C326.799 187.281 327.015 187.018 327.292 186.833C327.569 186.648 327.895 186.549 328.228 186.549C328.675 186.549 329.104 186.726 329.42 187.042C329.736 187.359 329.914 187.787 329.914 188.234Z" fill="#FBCA7A"/>
<path d="M335.453 188.234C335.453 188.568 335.354 188.894 335.169 189.171C334.984 189.448 334.721 189.664 334.413 189.792C334.105 189.919 333.766 189.952 333.439 189.887C333.112 189.822 332.811 189.662 332.576 189.426C332.34 189.19 332.179 188.89 332.114 188.563C332.049 188.236 332.083 187.897 332.21 187.589C332.338 187.281 332.554 187.018 332.831 186.833C333.108 186.648 333.434 186.549 333.768 186.549C334.215 186.549 334.643 186.726 334.959 187.042C335.275 187.359 335.453 187.787 335.453 188.234Z" fill="#FBCA7A"/>
<path d="M340.996 188.234C340.996 188.568 340.897 188.894 340.712 189.171C340.527 189.448 340.263 189.664 339.955 189.792C339.648 189.919 339.309 189.952 338.982 189.887C338.655 189.822 338.354 189.662 338.119 189.426C337.883 189.19 337.722 188.89 337.657 188.563C337.592 188.236 337.626 187.897 337.753 187.589C337.881 187.281 338.097 187.018 338.374 186.833C338.651 186.648 338.977 186.549 339.31 186.549C339.758 186.549 340.186 186.726 340.502 187.042C340.818 187.359 340.996 187.787 340.996 188.234Z" fill="#FBCA7A"/>
<path d="M318.824 193.283C318.824 193.616 318.725 193.942 318.54 194.22C318.355 194.497 318.092 194.713 317.784 194.84C317.476 194.968 317.137 195.001 316.81 194.936C316.483 194.871 316.183 194.711 315.947 194.475C315.711 194.239 315.551 193.939 315.486 193.612C315.42 193.285 315.454 192.946 315.581 192.638C315.709 192.33 315.925 192.067 316.202 191.882C316.479 191.697 316.805 191.598 317.139 191.598C317.586 191.598 318.014 191.775 318.33 192.091C318.647 192.407 318.824 192.836 318.824 193.283Z" fill="#FBCA7A"/>
<path d="M324.367 193.283C324.367 193.616 324.268 193.942 324.083 194.22C323.898 194.497 323.635 194.713 323.327 194.84C323.019 194.968 322.68 195.001 322.353 194.936C322.026 194.871 321.725 194.711 321.49 194.475C321.254 194.239 321.094 193.939 321.028 193.612C320.963 193.285 320.997 192.946 321.124 192.638C321.252 192.33 321.468 192.067 321.745 191.882C322.022 191.697 322.348 191.598 322.682 191.598C323.129 191.598 323.557 191.775 323.873 192.091C324.189 192.407 324.367 192.836 324.367 193.283Z" fill="#FBCA7A"/>
<path d="M329.914 193.283C329.914 193.616 329.815 193.942 329.63 194.22C329.445 194.497 329.181 194.713 328.873 194.84C328.565 194.968 328.227 195.001 327.9 194.936C327.573 194.871 327.272 194.711 327.037 194.475C326.801 194.239 326.64 193.939 326.575 193.612C326.51 193.285 326.544 192.946 326.671 192.638C326.799 192.33 327.015 192.067 327.292 191.882C327.569 191.697 327.895 191.598 328.228 191.598C328.675 191.598 329.104 191.775 329.42 192.091C329.736 192.407 329.914 192.836 329.914 193.283Z" fill="#FBCA7A"/>
<path d="M335.453 193.283C335.453 193.616 335.354 193.942 335.169 194.22C334.984 194.497 334.721 194.713 334.413 194.84C334.105 194.968 333.766 195.001 333.439 194.936C333.112 194.871 332.811 194.711 332.576 194.475C332.34 194.239 332.179 193.939 332.114 193.612C332.049 193.285 332.083 192.946 332.21 192.638C332.338 192.33 332.554 192.067 332.831 191.882C333.108 191.697 333.434 191.598 333.768 191.598C334.215 191.598 334.643 191.775 334.959 192.091C335.275 192.407 335.453 192.836 335.453 193.283Z" fill="#FBCA7A"/>
<path d="M340.996 193.283C340.996 193.616 340.897 193.942 340.712 194.22C340.527 194.497 340.263 194.713 339.955 194.84C339.648 194.968 339.309 195.001 338.982 194.936C338.655 194.871 338.354 194.711 338.119 194.475C337.883 194.239 337.722 193.939 337.657 193.612C337.592 193.285 337.626 192.946 337.753 192.638C337.881 192.33 338.097 192.067 338.374 191.882C338.651 191.697 338.977 191.598 339.31 191.598C339.758 191.598 340.186 191.775 340.502 192.091C340.818 192.407 340.996 192.836 340.996 193.283Z" fill="#FBCA7A"/>
<path d="M318.824 198.322C318.824 198.656 318.725 198.981 318.54 199.259C318.355 199.536 318.092 199.752 317.784 199.879C317.476 200.007 317.137 200.04 316.81 199.975C316.483 199.91 316.183 199.75 315.947 199.514C315.711 199.278 315.551 198.978 315.486 198.651C315.42 198.324 315.454 197.985 315.581 197.677C315.709 197.369 315.925 197.106 316.202 196.921C316.479 196.736 316.805 196.637 317.139 196.637C317.586 196.637 318.014 196.814 318.33 197.13C318.647 197.446 318.824 197.875 318.824 198.322Z" fill="#FBCA7A"/>
<path d="M324.367 198.322C324.367 198.656 324.268 198.981 324.083 199.259C323.898 199.536 323.635 199.752 323.327 199.879C323.019 200.007 322.68 200.04 322.353 199.975C322.026 199.91 321.725 199.75 321.49 199.514C321.254 199.278 321.094 198.978 321.028 198.651C320.963 198.324 320.997 197.985 321.124 197.677C321.252 197.369 321.468 197.106 321.745 196.921C322.022 196.736 322.348 196.637 322.682 196.637C323.129 196.637 323.557 196.814 323.873 197.13C324.189 197.446 324.367 197.875 324.367 198.322Z" fill="#FBCA7A"/>
<path d="M329.914 198.322C329.914 198.656 329.815 198.981 329.63 199.259C329.445 199.536 329.181 199.752 328.873 199.879C328.565 200.007 328.227 200.04 327.9 199.975C327.573 199.91 327.272 199.75 327.037 199.514C326.801 199.278 326.64 198.978 326.575 198.651C326.51 198.324 326.544 197.985 326.671 197.677C326.799 197.369 327.015 197.106 327.292 196.921C327.569 196.736 327.895 196.637 328.228 196.637C328.675 196.637 329.104 196.814 329.42 197.13C329.736 197.446 329.914 197.875 329.914 198.322Z" fill="#FBCA7A"/>
<path d="M335.453 198.322C335.453 198.656 335.354 198.981 335.169 199.259C334.984 199.536 334.721 199.752 334.413 199.879C334.105 200.007 333.766 200.04 333.439 199.975C333.112 199.91 332.811 199.75 332.576 199.514C332.34 199.278 332.179 198.978 332.114 198.651C332.049 198.324 332.083 197.985 332.21 197.677C332.338 197.369 332.554 197.106 332.831 196.921C333.108 196.736 333.434 196.637 333.768 196.637C334.215 196.637 334.643 196.814 334.959 197.13C335.275 197.446 335.453 197.875 335.453 198.322Z" fill="#FBCA7A"/>
<path d="M340.996 198.322C340.996 198.656 340.897 198.981 340.712 199.259C340.527 199.536 340.263 199.752 339.955 199.879C339.648 200.007 339.309 200.04 338.982 199.975C338.655 199.91 338.354 199.75 338.119 199.514C337.883 199.278 337.722 198.978 337.657 198.651C337.592 198.324 337.626 197.985 337.753 197.677C337.881 197.369 338.097 197.106 338.374 196.921C338.651 196.736 338.977 196.637 339.31 196.637C339.758 196.637 340.186 196.814 340.502 197.13C340.818 197.446 340.996 197.875 340.996 198.322Z" fill="#FBCA7A"/>
<path d="M313.246 186.549H312.277V199.999H313.246V186.549Z" fill="#263238"/>
<path d="M343.608 159.025H256.629V179.116H343.608V159.025Z" fill="#37474F"/>
<path d="M309.796 162.344H260.285V164.038H309.796V162.344Z" fill="#455A64"/>
<path d="M309.796 165.277H260.285V166.971H309.796V165.277Z" fill="#455A64"/>
<path d="M309.796 168.219H260.285V169.913H309.796V168.219Z" fill="#455A64"/>
<path d="M309.796 171.16H260.285V172.854H309.796V171.16Z" fill="#455A64"/>
<path d="M309.796 174.102H260.285V175.795H309.796V174.102Z" fill="#455A64"/>
<path d="M318.824 164.021C318.824 164.355 318.725 164.681 318.54 164.958C318.355 165.235 318.092 165.451 317.784 165.579C317.476 165.706 317.137 165.74 316.81 165.675C316.483 165.609 316.183 165.449 315.947 165.213C315.711 164.978 315.551 164.677 315.486 164.35C315.42 164.023 315.454 163.684 315.581 163.376C315.709 163.068 315.925 162.805 316.202 162.62C316.479 162.435 316.805 162.336 317.139 162.336C317.586 162.336 318.014 162.514 318.33 162.83C318.647 163.146 318.824 163.574 318.824 164.021Z" fill="#FBCA7A"/>
<path d="M324.367 164.021C324.367 164.355 324.268 164.681 324.083 164.958C323.898 165.235 323.635 165.451 323.327 165.579C323.019 165.706 322.68 165.74 322.353 165.675C322.026 165.609 321.725 165.449 321.49 165.213C321.254 164.978 321.094 164.677 321.028 164.35C320.963 164.023 320.997 163.684 321.124 163.376C321.252 163.068 321.468 162.805 321.745 162.62C322.022 162.435 322.348 162.336 322.682 162.336C323.129 162.336 323.557 162.514 323.873 162.83C324.189 163.146 324.367 163.574 324.367 164.021Z" fill="#FBCA7A"/>
<path d="M329.914 164.021C329.914 164.355 329.815 164.681 329.63 164.958C329.445 165.235 329.181 165.451 328.873 165.579C328.565 165.706 328.227 165.74 327.9 165.675C327.573 165.609 327.272 165.449 327.037 165.213C326.801 164.978 326.64 164.677 326.575 164.35C326.51 164.023 326.544 163.684 326.671 163.376C326.799 163.068 327.015 162.805 327.292 162.62C327.569 162.435 327.895 162.336 328.228 162.336C328.675 162.336 329.104 162.514 329.42 162.83C329.736 163.146 329.914 163.574 329.914 164.021Z" fill="#FBCA7A"/>
<path d="M335.453 164.021C335.453 164.355 335.354 164.681 335.169 164.958C334.984 165.235 334.721 165.451 334.413 165.579C334.105 165.706 333.766 165.74 333.439 165.675C333.112 165.609 332.811 165.449 332.576 165.213C332.34 164.978 332.179 164.677 332.114 164.35C332.049 164.023 332.083 163.684 332.21 163.376C332.338 163.068 332.554 162.805 332.831 162.62C333.108 162.435 333.434 162.336 333.768 162.336C334.215 162.336 334.643 162.514 334.959 162.83C335.275 163.146 335.453 163.574 335.453 164.021Z" fill="#FBCA7A"/>
<path d="M340.996 164.021C340.996 164.355 340.897 164.681 340.712 164.958C340.527 165.235 340.263 165.451 339.955 165.579C339.648 165.706 339.309 165.74 338.982 165.675C338.655 165.609 338.354 165.449 338.119 165.213C337.883 164.978 337.722 164.677 337.657 164.35C337.592 164.023 337.626 163.684 337.753 163.376C337.881 163.068 338.097 162.805 338.374 162.62C338.651 162.435 338.977 162.336 339.31 162.336C339.758 162.336 340.186 162.514 340.502 162.83C340.818 163.146 340.996 163.574 340.996 164.021Z" fill="#FBCA7A"/>
<path d="M317.146 170.756C318.077 170.756 318.832 170.001 318.832 169.07C318.832 168.139 318.077 167.385 317.146 167.385C316.216 167.385 315.461 168.139 315.461 169.07C315.461 170.001 316.216 170.756 317.146 170.756Z" fill="#FBCA7A"/>
<path d="M324.367 169.07C324.367 169.404 324.268 169.729 324.083 170.007C323.898 170.284 323.635 170.5 323.327 170.627C323.019 170.755 322.68 170.788 322.353 170.723C322.026 170.658 321.725 170.498 321.49 170.262C321.254 170.026 321.094 169.726 321.028 169.399C320.963 169.072 320.997 168.733 321.124 168.425C321.252 168.117 321.468 167.854 321.745 167.669C322.022 167.484 322.348 167.385 322.682 167.385C323.129 167.385 323.557 167.562 323.873 167.878C324.189 168.195 324.367 168.623 324.367 169.07Z" fill="#FBCA7A"/>
<path d="M328.228 170.756C329.159 170.756 329.914 170.001 329.914 169.07C329.914 168.139 329.159 167.385 328.228 167.385C327.298 167.385 326.543 168.139 326.543 169.07C326.543 170.001 327.298 170.756 328.228 170.756Z" fill="#FBCA7A"/>
<path d="M335.453 169.07C335.453 169.404 335.354 169.729 335.169 170.007C334.984 170.284 334.721 170.5 334.413 170.627C334.105 170.755 333.766 170.788 333.439 170.723C333.112 170.658 332.811 170.498 332.576 170.262C332.34 170.026 332.179 169.726 332.114 169.399C332.049 169.072 332.083 168.733 332.21 168.425C332.338 168.117 332.554 167.854 332.831 167.669C333.108 167.484 333.434 167.385 333.768 167.385C334.215 167.385 334.643 167.562 334.959 167.878C335.275 168.195 335.453 168.623 335.453 169.07Z" fill="#FBCA7A"/>
<path d="M340.996 169.07C340.996 169.404 340.897 169.729 340.712 170.007C340.527 170.284 340.263 170.5 339.955 170.627C339.648 170.755 339.309 170.788 338.982 170.723C338.655 170.658 338.354 170.498 338.119 170.262C337.883 170.026 337.722 169.726 337.657 169.399C337.592 169.072 337.626 168.733 337.753 168.425C337.881 168.117 338.097 167.854 338.374 167.669C338.651 167.484 338.977 167.385 339.31 167.385C339.758 167.385 340.186 167.562 340.502 167.878C340.818 168.195 340.996 168.623 340.996 169.07Z" fill="#FBCA7A"/>
<path d="M318.824 174.109C318.824 174.443 318.725 174.769 318.54 175.046C318.355 175.323 318.092 175.539 317.784 175.666C317.476 175.794 317.137 175.827 316.81 175.762C316.483 175.697 316.183 175.537 315.947 175.301C315.711 175.065 315.551 174.765 315.486 174.438C315.42 174.111 315.454 173.772 315.581 173.464C315.709 173.156 315.925 172.893 316.202 172.708C316.479 172.523 316.805 172.424 317.139 172.424C317.586 172.424 318.014 172.601 318.33 172.917C318.647 173.234 318.824 173.662 318.824 174.109Z" fill="#FBCA7A"/>
<path d="M324.367 174.109C324.367 174.443 324.268 174.769 324.083 175.046C323.898 175.323 323.635 175.539 323.327 175.666C323.019 175.794 322.68 175.827 322.353 175.762C322.026 175.697 321.725 175.537 321.49 175.301C321.254 175.065 321.094 174.765 321.028 174.438C320.963 174.111 320.997 173.772 321.124 173.464C321.252 173.156 321.468 172.893 321.745 172.708C322.022 172.523 322.348 172.424 322.682 172.424C323.129 172.424 323.557 172.601 323.873 172.917C324.189 173.234 324.367 173.662 324.367 174.109Z" fill="#FBCA7A"/>
<path d="M329.914 174.109C329.914 174.443 329.815 174.769 329.63 175.046C329.445 175.323 329.181 175.539 328.873 175.666C328.565 175.794 328.227 175.827 327.9 175.762C327.573 175.697 327.272 175.537 327.037 175.301C326.801 175.065 326.64 174.765 326.575 174.438C326.51 174.111 326.544 173.772 326.671 173.464C326.799 173.156 327.015 172.893 327.292 172.708C327.569 172.523 327.895 172.424 328.228 172.424C328.675 172.424 329.104 172.601 329.42 172.917C329.736 173.234 329.914 173.662 329.914 174.109Z" fill="#FBCA7A"/>
<path d="M335.453 174.109C335.453 174.443 335.354 174.769 335.169 175.046C334.984 175.323 334.721 175.539 334.413 175.666C334.105 175.794 333.766 175.827 333.439 175.762C333.112 175.697 332.811 175.537 332.576 175.301C332.34 175.065 332.179 174.765 332.114 174.438C332.049 174.111 332.083 173.772 332.21 173.464C332.338 173.156 332.554 172.893 332.831 172.708C333.108 172.523 333.434 172.424 333.768 172.424C334.215 172.424 334.643 172.601 334.959 172.917C335.275 173.234 335.453 173.662 335.453 174.109Z" fill="#FBCA7A"/>
<path d="M340.996 174.109C340.996 174.443 340.897 174.769 340.712 175.046C340.527 175.323 340.263 175.539 339.955 175.666C339.648 175.794 339.309 175.827 338.982 175.762C338.655 175.697 338.354 175.537 338.119 175.301C337.883 175.065 337.722 174.765 337.657 174.438C337.592 174.111 337.626 173.772 337.753 173.464C337.881 173.156 338.097 172.893 338.374 172.708C338.651 172.523 338.977 172.424 339.31 172.424C339.758 172.424 340.186 172.601 340.502 172.917C340.818 173.234 340.996 173.662 340.996 174.109Z" fill="#FBCA7A"/>
<path d="M313.246 162.344H312.277V175.794H313.246V162.344Z" fill="#263238"/>
<path d="M329.417 142.305H214.762V148.676H329.417V142.305Z" fill="#37474F"/>
<path d="M215.907 323.672H203.105V336.473H215.907V323.672Z" fill="#263238"/>
<path d="M27.9535 298.111H5.57031V320.495H27.9535V298.111Z" fill="#37474F"/>
<path d="M16.7603 316.771C20.8887 316.771 24.2354 313.424 24.2354 309.295C24.2354 305.167 20.8887 301.82 16.7603 301.82C12.6319 301.82 9.28516 305.167 9.28516 309.295C9.28516 313.424 12.6319 316.771 16.7603 316.771Z" fill="#455A64"/>
<path d="M15.3964 306.277H13.7109V312.446H15.3964V306.277Z" fill="#263238"/>
<path d="M20.08 306.277H18.3945V312.446H20.08V306.277Z" fill="#263238"/>
<path d="M0 355.291L44.9097 355.088L89.8194 355.012L179.63 354.869L269.441 355.012L314.351 355.088L359.261 355.291L314.351 355.501L269.441 355.577L179.63 355.712L89.8194 355.569L44.9097 355.493L0 355.291Z" fill="#263238"/>
<path d="M76.8819 334.166C77.7246 335.953 74.4885 348.754 73.5109 351.383C72.5334 354.013 68.9686 368.685 67.2494 369.317C65.5302 369.949 57.1954 369.772 56.0156 369.317C54.8358 368.862 56.0156 366.359 57.3724 365.482C58.7292 364.606 60.3557 363.266 60.3557 363.266C60.3557 363.266 57.9202 340.605 58.3753 338.068C58.8304 335.531 74.6908 329.371 76.8819 334.166Z" fill="#FBCA7A"/>
<path opacity="0.1" d="M76.8819 334.166C77.7246 335.953 74.4885 348.754 73.5109 351.383C72.5334 354.013 68.9686 368.685 67.2494 369.317C65.5302 369.949 57.1954 369.772 56.0156 369.317C54.8358 368.862 56.0156 366.359 57.3724 365.482C58.7292 364.606 60.3557 363.266 60.3557 363.266C60.3557 363.266 57.9202 340.605 58.3753 338.068C58.8304 335.531 74.6908 329.371 76.8819 334.166Z" fill="black"/>
<path opacity="0.1" d="M59.4554 368.331C59.5478 367.878 59.7345 367.45 60.0032 367.075C60.2723 366.708 60.593 366.381 60.9555 366.106C61.3077 365.828 61.716 365.629 62.1522 365.524C62.1654 365.519 62.1803 365.518 62.1939 365.523C62.2076 365.527 62.2191 365.536 62.2264 365.549C62.2336 365.561 62.2361 365.576 62.2333 365.59C62.2305 365.604 62.2226 365.617 62.2112 365.625C62.0595 365.76 61.891 365.878 61.7477 366.022C61.6044 366.165 61.4443 366.316 61.3095 366.468C61.0328 366.764 60.7923 367.093 60.5931 367.446C60.3825 367.791 60.1886 368.145 60.0032 368.516C59.8178 368.887 59.7251 369.283 59.5819 369.671C59.5819 369.693 59.573 369.714 59.5572 369.73C59.5414 369.746 59.5199 369.755 59.4976 369.755C59.4752 369.755 59.4538 369.746 59.438 369.73C59.4222 369.714 59.4133 369.693 59.4133 369.671C59.3292 369.226 59.3436 368.769 59.4554 368.331Z" fill="black"/>
<path opacity="0.1" d="M57.0186 366.999C57.4823 366.199 58.1959 365.575 59.0496 365.221C59.1086 365.221 59.1676 365.263 59.117 365.305C58.4725 365.813 57.9245 366.432 57.499 367.134C57.2862 367.492 57.1481 367.889 57.0931 368.302C57.0381 368.715 57.0672 369.134 57.1787 369.536C57.1787 369.536 57.1787 369.586 57.1197 369.536C56.8739 369.162 56.7346 368.728 56.7168 368.281C56.699 367.834 56.8033 367.391 57.0186 366.999Z" fill="black"/>
<path opacity="0.1" d="M59.0652 350.583L70.518 361.42C71.7821 357.266 72.962 352.749 73.4761 351.409C74.4873 348.779 77.6898 335.978 76.847 334.191C74.6475 329.396 58.7449 335.557 58.3067 338.093C58.1297 339.265 58.5511 344.911 59.0652 350.583Z" fill="black"/>
<path d="M120.141 346.976C120.604 347.414 125.113 343.149 125.804 341.152C126.495 339.155 123.613 333.517 124.118 332.556C124.624 331.595 127.11 330.829 128.383 332.303C129.655 333.778 132.917 341.86 132.242 345.315C131.568 348.771 124.632 356.482 123.899 356.482C123.166 356.482 120.141 346.976 120.141 346.976Z" fill="#FBCA7A"/>
<path opacity="0.1" d="M120.141 346.976C120.141 346.976 123.183 356.415 123.899 356.457C124.43 356.457 128.29 352.361 130.599 348.796L124.287 343.479C122.694 345.358 120.461 347.279 120.141 346.976Z" fill="black"/>
<path d="M94.6725 307.99H57.2547C57.2547 307.99 54.4737 332.632 54.777 335.893C55.0804 339.155 71.5223 363.316 76.6209 366.434C81.7195 369.553 111.03 369.704 118.16 368.12C123.705 366.898 128.332 359.819 126.031 348.922C125.028 344.152 112.033 332.792 110.221 330.618C108.409 328.444 94.6725 307.99 94.6725 307.99Z" fill="#C7C7C7"/>
<path d="M54.7772 335.893C55.0806 339.154 71.5224 363.316 76.6295 366.434C81.7365 369.552 111.03 369.704 118.168 368.119C123.705 366.897 128.34 359.818 126.031 348.913C125.028 344.152 112.041 332.791 110.23 330.617C109.117 329.286 103.538 321.094 99.3751 314.942C96.7373 311.049 94.6726 307.973 94.6726 307.973H57.2548C57.2548 307.973 56.5554 314.158 55.898 320.74C55.2407 327.322 54.6255 334.266 54.7772 335.893Z" fill="#FBCA7A"/>
<path opacity="0.1" d="M55.8984 320.758C76.0063 326.96 93.8893 318.137 99.3755 314.96C96.7377 311.066 94.673 307.99 94.673 307.99H57.2553C57.2553 307.99 56.5895 314.176 55.8984 320.758Z" fill="black"/>
<path d="M118.876 347.751C118.876 347.751 108.578 341.288 101.356 342.451C94.1332 343.614 91.5797 358.463 95.0434 366.797C95.0434 366.797 88.4531 368.753 88.4531 371.938C88.4531 373.75 92.2202 374.331 97.6474 374.197C103.075 374.062 113.879 373.961 114.115 372.595C114.165 371.471 113.921 370.352 113.407 369.351C113.407 369.351 123.157 368.255 125.07 361.766C126.983 355.277 120.503 348.839 118.876 347.751Z" fill="#FBCA7A"/>
<path opacity="0.1" d="M104.811 367.531C107.571 368.66 110.504 369.31 113.483 369.452C113.542 369.452 113.559 369.553 113.483 369.562C110.445 369.861 107.392 369.173 104.777 367.598C104.744 367.581 104.769 367.505 104.811 367.531Z" fill="black"/>
<path opacity="0.1" d="M92.6911 374.237C93.0496 373.025 93.8494 371.99 94.9328 371.338C95.5206 370.932 96.1615 370.609 96.8374 370.377C97.6128 370.116 98.4049 369.973 99.1887 369.729C99.2477 369.729 99.2982 369.804 99.1887 369.83C98.5186 370.072 97.8701 370.371 97.2504 370.723C96.6211 371.048 96.0105 371.408 95.4216 371.802C94.451 372.506 93.5977 373.359 92.8934 374.33C92.8681 374.439 92.6574 374.38 92.6911 374.237Z" fill="black"/>
<path opacity="0.1" d="M94.0243 369.123C94.0377 369.123 94.0506 369.128 94.0601 369.138C94.0696 369.147 94.0749 369.16 94.0749 369.174C94.0749 369.187 94.0696 369.2 94.0601 369.209C94.0506 369.219 94.0377 369.224 94.0243 369.224C92.0299 370.057 90.4394 371.635 89.5915 373.623C89.5915 373.708 89.4061 373.708 89.423 373.623C89.5873 372.471 90.1274 371.405 90.9594 370.592C91.7914 369.778 92.8688 369.262 94.0243 369.123Z" fill="black"/>
<path d="M88.9756 337.342C89.8184 339.12 86.5823 351.921 85.6047 354.55C84.6271 357.18 81.0286 371.852 79.3431 372.492C77.6576 373.133 69.2892 372.947 68.1094 372.492C66.9295 372.037 68.1094 369.534 69.4662 368.658C70.823 367.781 72.4411 366.441 72.4411 366.441C72.4411 366.441 70.014 343.78 70.4606 341.243C70.9073 338.707 86.7845 332.538 88.9756 337.342Z" fill="#FBCA7A"/>
<path opacity="0.1" d="M83.3597 361.663C84.1266 359.354 85.1295 357.112 85.888 354.812C85.888 354.719 86.0649 354.761 86.0312 354.854C85.4413 356.708 84.9947 358.612 84.4385 360.483C84.5227 360.357 84.5986 360.222 84.6744 360.096C85.2276 359.387 85.6735 358.6 85.9975 357.761C86.0031 357.741 86.0165 357.724 86.0346 357.714C86.0528 357.704 86.0743 357.701 86.0944 357.707C86.1146 357.712 86.1316 357.725 86.1419 357.744C86.1522 357.762 86.1548 357.783 86.1492 357.803C86.0271 358.198 85.8603 358.576 85.652 358.933C85.4329 359.346 85.2054 359.775 84.9778 360.172C84.7503 360.568 84.3795 361.233 84.0508 361.747C84.0508 361.79 84.0508 361.823 84.0508 361.857C83.3347 364.186 82.4907 366.473 81.5226 368.709C81.5099 368.729 81.491 368.744 81.4687 368.753C81.4464 368.761 81.422 368.762 81.3992 368.755C81.3763 368.749 81.3563 368.735 81.342 368.716C81.3278 368.697 81.3202 368.673 81.3203 368.65C81.8824 366.288 82.5631 363.956 83.3597 361.663Z" fill="black"/>
<path opacity="0.1" d="M70.1147 344.853C70.1147 344.81 70.2074 344.794 70.2158 344.853C70.4602 346.538 70.5613 348.308 70.7383 350.035C70.9153 351.763 71.1344 353.617 71.3282 355.412C71.7243 358.977 72.3227 362.533 72.6092 366.107C72.6092 366.258 72.3479 366.275 72.3058 366.107C71.4485 362.67 70.8708 359.17 70.5782 355.64C70.3928 353.887 70.2832 352.134 70.199 350.381C70.0685 348.541 70.0403 346.696 70.1147 344.853Z" fill="black"/>
<path opacity="0.1" d="M71.1422 371.323C71.2277 370.87 71.4119 370.441 71.6815 370.067C71.9513 369.698 72.2751 369.371 72.6423 369.098C72.9925 368.817 73.4015 368.618 73.839 368.517C73.8515 368.514 73.8644 368.516 73.8757 368.522C73.8871 368.528 73.8963 368.537 73.9019 368.548C73.9076 368.56 73.9095 368.572 73.9072 368.585C73.905 368.598 73.8988 368.609 73.8895 368.618C73.7378 368.761 73.5693 368.87 73.426 369.014L72.9878 369.46C72.7157 369.76 72.4756 370.088 72.2715 370.438C72.0692 370.783 71.8669 371.137 71.69 371.508C71.513 371.879 71.4034 372.275 71.2602 372.663C71.2546 372.68 71.2439 372.694 71.2295 372.705C71.2152 372.715 71.1979 372.721 71.1801 372.721C71.1624 372.721 71.1451 372.715 71.1307 372.705C71.1163 372.694 71.1056 372.68 71.1001 372.663C71.0117 372.219 71.0261 371.76 71.1422 371.323Z" fill="black"/>
<path opacity="0.1" d="M68.6984 369.966C69.1642 369.165 69.881 368.54 70.7378 368.188C70.7884 368.188 70.8474 368.23 70.7968 368.272C70.1526 368.777 69.607 369.397 69.1872 370.101C68.9702 370.457 68.8297 370.854 68.7745 371.268C68.7194 371.681 68.7509 372.102 68.8669 372.502C68.8669 372.502 68.8669 372.553 68.8079 372.502C68.5608 372.129 68.42 371.696 68.4007 371.249C68.3814 370.802 68.4843 370.359 68.6984 369.966Z" fill="black"/>
<path d="M71.5726 273.733C71.9771 272.249 68.2859 266.991 66.8785 265.263C65.4711 263.536 57.7264 260.864 55.2487 262.221C54.2795 262.752 52.4761 266.477 50.0405 269.704C46.2651 274.71 41.8659 279.961 43.4672 281.368C47.3438 284.798 56.201 279.387 59.0747 277.576C61.9485 275.764 64.5694 273.547 65.2689 273.623C66.1959 273.724 68.1342 275.191 68.918 275.309C69.468 275.346 70.0163 275.215 70.4903 274.933C70.9643 274.652 71.3417 274.233 71.5726 273.733Z" fill="#FBCA7A"/>
<path opacity="0.1" d="M71.5726 273.733C71.9771 272.249 68.2859 266.991 66.8785 265.263C65.4711 263.536 57.7264 260.864 55.2487 262.221C54.2795 262.752 52.4761 266.477 50.0405 269.704C46.2651 274.71 41.8659 279.961 43.4672 281.368C47.3438 284.798 56.201 279.387 59.0747 277.576C61.9485 275.764 64.5694 273.547 65.2689 273.623C66.1959 273.724 68.1342 275.191 68.918 275.309C69.468 275.346 70.0163 275.215 70.4903 274.933C70.9643 274.652 71.3417 274.233 71.5726 273.733Z" fill="black"/>
<path d="M89.4564 268.491C98.499 273.901 102.51 288.278 102.755 290.579C102.957 292.45 107.264 299.091 106.497 306.229C105.999 310.813 97.7574 316.906 91.0492 316.847C89.8188 316.847 79.3772 320.623 70.5537 320.016C61.7302 319.409 55.0557 313.148 54.7944 312.617C54.5332 312.086 47.3193 311.058 46.8979 303.684C46.1816 291.885 58.1907 271.862 61.6206 269.131C67.3091 264.623 83.2707 264.817 89.4564 268.491Z" fill="#FBCA7A"/>
<path d="M85.1568 274.734C84.9882 273.133 89.6823 268.321 91.4352 266.728C93.1881 265.136 101.666 263.686 104.009 265.506C104.928 266.223 106.183 270.377 108.172 274.136C111.248 279.959 114.914 286.137 113.06 287.333C108.459 290.249 100.166 283.17 97.4861 280.802C94.8062 278.434 92.4296 275.746 91.7133 275.678C90.7357 275.628 88.4772 276.824 87.6597 276.782C87.0852 276.732 86.5392 276.509 86.0928 276.144C85.6465 275.779 85.3203 275.288 85.1568 274.734Z" fill="#FBCA7A"/>
<path opacity="0.1" d="M85.1568 274.734C84.9882 273.133 89.6823 268.321 91.4352 266.728C93.1881 265.136 101.666 263.686 104.009 265.506C104.928 266.223 106.183 270.377 108.172 274.136C111.248 279.959 114.914 286.137 113.06 287.333C108.459 290.249 100.166 283.17 97.4861 280.802C94.8062 278.434 92.4296 275.746 91.7133 275.678C90.7357 275.628 88.4772 276.824 87.6597 276.782C87.0852 276.732 86.5392 276.509 86.0928 276.144C85.6465 275.779 85.3203 275.288 85.1568 274.734Z" fill="black"/>
<path opacity="0.1" d="M68.6363 294.903C74.1816 294.953 76.7098 300.895 77.3756 302.437C78.0413 303.979 81.4713 307.493 81.5893 311.227C81.7073 314.96 74.6535 319.064 67.2627 317.758C59.8718 316.452 55.9699 312.288 56.0121 308.53C56.0121 305.504 58.8942 302.883 59.2145 302.091C59.5347 301.299 63.5883 294.852 68.6363 294.903Z" fill="black"/>
<path opacity="0.1" d="M82.2773 305.334C83.0188 306.177 83.6451 307.115 84.1398 308.123C84.6556 309.138 85.0218 310.223 85.2269 311.343C85.4611 312.505 85.3346 313.71 84.8646 314.798C84.6107 315.335 84.2425 315.809 83.7859 316.189C83.3325 316.534 82.8219 316.796 82.2773 316.964C83.19 316.402 83.8875 315.551 84.2578 314.545C84.5559 313.55 84.6023 312.496 84.3926 311.478C84.2095 310.422 83.9274 309.387 83.5499 308.385C83.1538 307.365 82.7156 306.345 82.2773 305.334Z" fill="black"/>
<path opacity="0.1" d="M56.8671 303.119C56.3867 303.717 55.9316 304.299 55.5103 304.889C55.0948 305.465 54.7363 306.08 54.44 306.726C54.1623 307.355 53.9969 308.029 53.9512 308.715C53.959 309.438 54.093 310.154 54.3473 310.83C53.7834 310.27 53.4142 309.543 53.2939 308.757C53.2107 307.948 53.3415 307.132 53.6731 306.389C54.3415 304.972 55.4663 303.821 56.8671 303.119Z" fill="black"/>
<path d="M143.511 382.489C134.434 382.489 124.414 382.329 114.343 382.144C109.152 382.051 105.073 381.975 102.494 381.975C89.4067 381.975 85.6396 365.12 81.999 348.889C81.4933 346.622 80.9877 344.355 80.4568 342.147C79.4118 337.79 78.5606 333.399 77.7263 329.144C75.1981 315.988 72.9479 304.637 67.1499 304.013C59.4894 303.17 52.6716 314.648 50.1855 332.523L48.5 332.295C51.1209 313.452 58.6803 301.401 67.31 302.336C74.3469 303.086 76.6729 314.977 79.3612 328.823C80.204 333.037 81.0467 337.436 82.0748 341.751C82.6142 343.984 83.1198 346.268 83.6339 348.544C87.2914 364.876 90.7467 380.306 102.478 380.306C105.048 380.306 109.161 380.382 114.36 380.475C125.754 380.694 141.328 380.981 154.559 380.719C175.982 380.298 178.518 378.613 178.779 378.098C178.779 374.593 156.16 370.379 147.649 368.786C139.137 367.193 138.716 367.101 138.808 366.064C138.901 365.028 139.946 365.112 141.547 365.112H176.892C187.974 365.112 191.547 349.167 193.688 339.636C194.054 337.589 194.598 335.579 195.314 333.627C197.792 328.469 204.062 329.219 204.323 329.253L204.104 330.939C203.885 330.939 198.778 330.315 196.831 334.369C196.183 336.208 195.682 338.096 195.331 340.015C193.081 350.035 189.331 366.806 176.892 366.806H146.216L147.977 367.134C168.557 370.977 180.473 374.02 180.473 378.174C180.47 378.401 180.42 378.624 180.325 378.83C180.231 379.036 180.095 379.22 179.926 379.371C177.423 381.807 162.531 382.489 143.511 382.489Z" fill="#263238"/>
<path d="M54.6936 331.285L44.3633 330.666L43.9917 336.866L54.322 337.485L54.6936 331.285Z" fill="#455A64"/>
<path d="M52.8579 329.207L46.4141 328.82L46.2961 330.789L52.7399 331.175L52.8579 329.207Z" fill="#37474F"/>
<path d="M47.4151 337.079L46.1953 337.006L45.9119 341.734L47.1317 341.807L47.4151 337.079Z" fill="#FBCA7A"/>
<path d="M52.0864 337.348L50.875 337.275L50.5916 342.003L51.803 342.076L52.0864 337.348Z" fill="#FBCA7A"/>
<path d="M207.48 324.903V335.252H212.006V324.903H207.48Z" fill="#455A64"/>
<path d="M203.832 326.851V333.307H207.49V326.851H203.832Z" fill="#37474F"/>
<path d="M61.6445 303.895C61.6445 303.895 63.8441 306.423 64.6953 305.901C65.5464 305.378 67.6786 300.356 67.6786 300.356C67.6786 300.356 68.1926 306.727 69.836 306.904C71.4793 307.081 74.2941 304.561 74.2941 304.561L67.6449 299.951L61.6445 303.895Z" fill="#FBCA7A"/>
<path opacity="0.1" d="M61.6445 303.895C61.6445 303.895 63.8441 306.423 64.6953 305.901C65.5464 305.378 67.6786 300.356 67.6786 300.356C67.6786 300.356 68.1926 306.727 69.836 306.904C71.4793 307.081 74.2941 304.561 74.2941 304.561L67.6449 299.951L61.6445 303.895Z" fill="black"/>
<path opacity="0.1" d="M94.218 295.982C94.8729 293.932 95.1023 291.77 94.8922 289.628C94.7974 288.52 94.5389 287.432 94.1253 286.4C93.9004 285.868 93.6178 285.362 93.2826 284.892C92.9602 284.405 92.5811 283.958 92.1533 283.56C91.9393 283.361 91.7111 283.178 91.4707 283.012C91.2263 282.844 90.9735 282.709 90.7291 282.557L90.3499 282.346L89.9538 282.186C89.6794 282.068 89.3979 281.967 89.111 281.883C88.0181 281.562 86.8738 281.453 85.7401 281.563C83.5696 281.77 81.5015 282.584 79.7734 283.914C81.6924 283.183 83.7287 282.809 85.7822 282.81C86.7501 282.822 87.7095 282.993 88.6222 283.316C88.8498 283.383 89.0605 283.509 89.2796 283.594L89.5998 283.737L89.9032 283.931C90.097 284.057 90.3077 284.167 90.5016 284.302C90.6883 284.435 90.8657 284.582 91.0325 284.74C91.7272 285.375 92.2838 286.147 92.6674 287.007C93.0839 287.902 93.3922 288.845 93.586 289.813C94.0072 291.842 94.219 293.91 94.218 295.982Z" fill="black"/>
<path opacity="0.1" d="M53.1082 291.676C53.1992 289.923 53.4818 288.185 53.951 286.493C54.3541 284.925 55.2382 283.522 56.4792 282.482C56.7901 282.254 57.1233 282.06 57.4736 281.9C57.8146 281.752 58.175 281.652 58.5439 281.605C59.3544 281.513 60.1735 281.53 60.9794 281.656C62.7137 281.963 64.4212 282.405 66.0865 282.979C65.3873 282.389 64.6274 281.874 63.8195 281.445C63.415 281.234 62.9767 281.04 62.5722 280.855C62.1393 280.681 61.6977 280.529 61.2491 280.4C60.317 280.113 59.3393 280.005 58.3669 280.08C57.8442 280.118 57.3314 280.243 56.85 280.451C56.383 280.65 55.9417 280.905 55.5353 281.209C54.737 281.818 54.086 282.598 53.6307 283.493C53.2064 284.349 52.9219 285.268 52.788 286.215C52.4913 288.037 52.6006 289.901 53.1082 291.676Z" fill="black"/>
<path d="M80.4864 293.335C80.4864 293.242 80.7055 293.461 80.697 293.571C80.4948 296.099 80.697 299.049 83.2253 300.001C83.3011 300.001 83.2843 300.161 83.2253 300.144C80.1324 299.613 79.8543 295.711 80.4864 293.335Z" fill="#263238"/>
<path d="M83.1034 290.79C87.6036 290.672 87.5952 298.889 83.4236 298.999C79.252 299.108 79.3448 290.883 83.1034 290.79Z" fill="#263238"/>
<path d="M63.1045 291.337C63.1045 291.244 62.877 291.438 62.8686 291.548C62.7169 294.076 62.0258 296.966 59.4976 297.565C59.4217 297.565 59.4133 297.708 59.4976 297.708C62.5905 297.607 63.4079 293.781 63.1045 291.337Z" fill="#263238"/>
<path d="M60.8789 288.456C56.4461 287.714 55.3 295.855 59.4125 296.538C63.5251 297.22 64.6038 289.063 60.8789 288.456Z" fill="#263238"/>
<path d="M67.4702 300.12C68.313 300.381 73.8245 298.628 73.3694 296.943C72.9059 295.123 65.1021 294.693 64.0993 295.873C63.0964 297.053 66.6359 299.85 67.4702 300.12Z" fill="#263238"/>
<path d="M74.3944 304.474C73.5077 305.144 72.5629 305.734 71.5712 306.236C71.0972 306.49 70.5741 306.639 70.0374 306.674C69.7172 306.733 69.4475 306.303 69.2621 305.89C68.9257 305.024 68.691 304.122 68.5626 303.202C68.3941 302.283 68.3014 301.339 68.2002 300.421L67.939 297.893L67.1721 300.379C66.9361 301.146 66.658 301.912 66.3799 302.679C66.1004 303.443 65.7681 304.187 65.3855 304.904C65.2919 305.083 65.1818 305.252 65.0568 305.41C64.9543 305.568 64.8228 305.705 64.6691 305.814C64.525 305.884 64.3614 305.902 64.2056 305.865C63.9937 305.806 63.7899 305.721 63.5989 305.612C62.8438 305.121 62.1699 304.516 61.6016 303.817C62.0097 304.62 62.5843 305.327 63.287 305.89C63.5072 306.061 63.7553 306.192 64.0202 306.278C64.183 306.319 64.3497 306.341 64.5175 306.345C64.7047 306.347 64.8896 306.303 65.0568 306.219C65.2928 306.088 65.5039 305.917 65.6804 305.713C65.8333 305.541 65.9741 305.358 66.1018 305.165C66.5721 304.448 66.9755 303.689 67.3069 302.898C67.644 302.132 67.9306 301.356 68.1497 300.572L67.1131 300.497C67.1879 301.45 67.3173 302.398 67.5008 303.337C67.5939 303.814 67.712 304.287 67.8547 304.752C67.9938 305.24 68.183 305.712 68.4193 306.16C68.5508 306.413 68.7183 306.646 68.9166 306.851C69.0443 306.982 69.1959 307.088 69.3632 307.163C69.4721 307.215 69.5888 307.249 69.7087 307.264C69.8123 307.277 69.917 307.277 70.0206 307.264C70.6702 307.195 71.2941 306.972 71.8409 306.615C72.7896 306.027 73.6495 305.306 74.3944 304.474Z" fill="#263238"/>
<path d="M32.0625 333.634C35.4096 333.439 38.7679 333.668 42.0574 334.316C38.7103 334.511 35.3521 334.281 32.0625 333.634Z" fill="#263238"/>
<path d="M56.3281 338.967C57.9088 339.517 59.4491 340.176 60.9379 340.939C62.4377 341.678 63.8825 342.523 65.2612 343.468C62.1052 342.348 59.1037 340.833 56.3281 338.959V338.967Z" fill="#263238"/>
<path d="M37.4141 350.58C39.0721 347.667 41.0941 344.977 43.4312 342.574C42.6154 344.043 41.6944 345.452 40.6755 346.788C39.6802 348.128 38.5903 349.396 37.4141 350.58Z" fill="#263238"/>
<path d="M27.9336 323.672C29.2398 324.085 30.5124 324.557 31.7765 325.046C33.0406 325.534 34.3047 326.057 35.552 326.588C36.7992 327.119 38.0802 327.666 39.2685 328.273C40.4567 328.88 41.7293 329.445 42.926 330.102C41.6197 329.681 40.3472 329.209 39.0831 328.72C37.819 328.231 36.5548 327.709 35.3076 327.178C34.0603 326.647 32.7794 326.099 31.5911 325.492C30.4028 324.885 29.1387 324.321 27.9336 323.672Z" fill="#263238"/>
<path d="M57.5391 331.138C58.7132 330.548 59.9371 330.063 61.1966 329.688C62.4465 329.292 63.7299 329.01 65.031 328.846C62.6769 330.018 60.1457 330.796 57.5391 331.146V331.138Z" fill="#263238"/>
<path d="M45.4222 326.874C44.7312 325.779 44.1075 324.658 43.4923 323.503C42.8771 322.349 42.2872 321.228 41.7057 320.073C41.1242 318.919 40.568 317.764 40.0202 316.584C39.4724 315.405 38.9668 314.233 38.5117 313.02C39.2028 314.115 39.8348 315.244 40.45 316.39C41.0652 317.537 41.6551 318.666 42.2366 319.812C42.8181 320.958 43.3659 322.121 43.9221 323.301C44.4783 324.481 44.9671 325.661 45.4222 326.874Z" fill="#263238"/>
<path d="M62.4864 353.529C61.7363 352.687 61.0369 351.768 60.3542 350.866C59.6716 349.965 59.0143 349.029 58.3569 348.102C57.6996 347.175 57.0844 346.223 56.486 345.254C55.8877 344.285 55.2894 343.315 54.75 342.312C55.5 343.155 56.1995 344.074 56.8821 344.976C57.5648 345.877 58.2305 346.813 58.8794 347.74C59.5283 348.667 60.152 349.619 60.7503 350.588C61.3487 351.557 61.947 352.518 62.4864 353.529Z" fill="#263238"/>
<path d="M289.137 142.306H219.476L214.082 94.9941H283.743L289.137 142.306Z" fill="#A6A6A6"/>
<path d="M285.344 139.136H222.552L217.883 98.1699H280.676L285.344 139.136Z" fill="white"/>
<path d="M246.559 119.72L245.557 120.917L235.68 112.388L236.683 111.191L246.559 119.72Z" fill="#FBCA7A"/>
<path d="M244.019 111.191L245.401 112.388L238.23 120.917L236.848 119.72L244.019 111.191Z" fill="#FBCA7A"/>
<path d="M267.681 119.72L266.678 120.917L256.801 112.388L257.804 111.191L267.681 119.72Z" fill="#FBCA7A"/>
<path d="M265.137 111.191L266.519 112.388L259.347 120.917L257.965 119.72L265.137 111.191Z" fill="#FBCA7A"/>
<path d="M234.418 127.92L234.148 126.234H272.434L272.704 127.92H234.418Z" fill="#FBCA7A"/>
<path d="M309.582 139.137H219.965V142.314H309.582V139.137Z" fill="#A6A6A6"/>
<path d="M317.147 139.137H239.43V142.314H317.147V139.137Z" fill="#C7C7C7"/>
<path d="M280.903 100.159L280.676 98.1699H217.883L218.11 100.159H280.903Z" fill="#263238"/>
<path d="M223.165 99.1652C223.175 99.2929 223.231 99.4128 223.322 99.5026C223.414 99.5925 223.534 99.6462 223.662 99.654C223.722 99.6528 223.78 99.6385 223.834 99.612C223.887 99.5855 223.934 99.5476 223.971 99.5009C224.008 99.4542 224.034 99.3999 224.048 99.3418C224.062 99.2838 224.062 99.2235 224.05 99.1652C224.042 99.0359 223.987 98.914 223.895 98.8225C223.804 98.7309 223.682 98.6759 223.553 98.668C223.493 98.6704 223.434 98.6858 223.381 98.7132C223.327 98.7406 223.28 98.7793 223.244 98.8267C223.207 98.874 223.18 98.9288 223.167 98.9873C223.153 99.0457 223.153 99.1064 223.165 99.1652Z" fill="#C7C7C7"/>
<path d="M221.347 99.1652C221.359 99.2937 221.416 99.4136 221.509 99.5033C221.602 99.593 221.724 99.6465 221.852 99.654C221.912 99.6514 221.969 99.6361 222.022 99.6092C222.075 99.5823 222.121 99.5444 222.158 99.498C222.195 99.4517 222.221 99.398 222.235 99.3406C222.249 99.2831 222.251 99.2233 222.24 99.1652C222.23 99.0365 222.175 98.9156 222.084 98.8244C221.992 98.7332 221.872 98.6777 221.743 98.668C221.683 98.6706 221.624 98.6861 221.57 98.7134C221.516 98.7407 221.469 98.7793 221.432 98.8264C221.394 98.8735 221.367 98.9281 221.352 98.9866C221.338 99.045 221.336 99.1059 221.347 99.1652Z" fill="white"/>
<path d="M219.536 99.1652C219.546 99.2929 219.602 99.4128 219.693 99.5026C219.785 99.5925 219.905 99.6462 220.033 99.654C220.093 99.6528 220.152 99.6385 220.205 99.612C220.258 99.5855 220.305 99.5476 220.342 99.5009C220.379 99.4542 220.406 99.3999 220.419 99.3418C220.433 99.2838 220.433 99.2235 220.421 99.1652C220.413 99.0359 220.358 98.914 220.266 98.8225C220.175 98.7309 220.053 98.6759 219.924 98.668C219.864 98.6704 219.805 98.6858 219.752 98.7132C219.698 98.7406 219.652 98.7793 219.615 98.8267C219.578 98.874 219.552 98.9288 219.538 98.9873C219.524 99.0457 219.524 99.1064 219.536 99.1652Z" fill="#FBCA7A"/>
</svg>
